<svg preserveAspectRatio="none" width="100%" height="100%" overflow="visible" style="display: block;" viewBox="0 0 120 120" fill="none" xmlns="http://www.w3.org/2000/svg">
<g id="interface-validation-check-circle">
<circle id="Ellipse 18" cx="60" cy="60" r="50" fill="var(--fill-0, #F3F6F9)"/>
<g id="Vector 7 (Stroke)">
<path fill-rule="evenodd" clip-rule="evenodd" d="M85.4858 38.872C87.5163 40.4437 88.108 43.4508 86.817 45.7682C76.8004 63.7486 67.6862 75.7119 62.3003 82.1156C59.4035 85.5599 54.7456 86.0017 51.4608 82.9965C46.7712 78.706 39.879 71.4218 33.2832 60.8118C32.0402 58.8122 32.3095 56.1463 33.8586 54.4173L37.83 49.9846C39.6789 47.9209 42.7183 47.8642 44.583 49.911C51.1501 57.1195 56.2433 63.6559 56.2433 63.6559C56.2433 63.6559 63.7275 51.5144 75.3494 36.7935C76.9558 34.7588 79.7271 34.4147 81.7365 35.97L85.4858 38.872Z" fill="#C9D3DE"/>
</g>
</g>
</svg>
