<svg preserveAspectRatio="none" width="100%" height="100%" overflow="visible" style="display: block;" viewBox="0 0 100 100" fill="none" xmlns="http://www.w3.org/2000/svg">
<g id="passport 1">
<g id="Group">
<path id="Vector" d="M79.6547 54.6875H85.8438C85.5559 52.157 84.5876 49.7519 83.042 47.7278C81.4963 45.7037 79.431 44.1363 77.0656 43.1922C78.7053 46.8067 79.5865 50.719 79.6547 54.6875V54.6875Z" fill="var(--fill-0, #3996FC)"/>
<path id="Vector_2" d="M64.0932 54.6875C64.1614 50.719 65.0426 46.8067 66.6823 43.1922C64.3169 44.1363 62.2516 45.7037 60.7059 47.7278C59.1603 49.7519 58.192 52.157 57.9041 54.6875H64.0932Z" fill="var(--fill-0, #3996FC)"/>
<path id="Vector_3" d="M71.8749 42.1875C70.0827 42.1875 67.5296 47.0063 67.2186 54.6875H76.5311C76.2202 47.0063 73.6671 42.1875 71.8749 42.1875V42.1875Z" fill="var(--fill-0, #3996FC)"/>
<path id="Vector_4" d="M67.2186 57.8125C67.5311 65.4937 70.0827 70.3125 71.8749 70.3125C73.6671 70.3125 76.2202 65.4937 76.5311 57.8125H67.2186Z" fill="var(--fill-0, #3996FC)"/>
<path id="Vector_5" d="M79.6547 57.8125C79.5865 61.781 78.7053 65.6933 77.0656 69.3078C79.431 68.3638 81.4963 66.7964 83.042 64.7722C84.5876 62.7481 85.5559 60.343 85.8438 57.8125H79.6547Z" fill="var(--fill-0, #3996FC)"/>
<path id="Vector_6" d="M92.1875 20.3125H51.5625C49.9049 20.3125 48.3152 20.971 47.1431 22.1431C45.971 23.3152 45.3125 24.9049 45.3125 26.5625V92.1875C45.3125 93.8451 45.971 95.4348 47.1431 96.6069C48.3152 97.779 49.9049 98.4375 51.5625 98.4375H92.1875C93.8451 98.4375 95.4348 97.779 96.6069 96.6069C97.779 95.4348 98.4375 93.8451 98.4375 92.1875V26.5625C98.4375 24.9049 97.779 23.3152 96.6069 22.1431C95.4348 20.971 93.8451 20.3125 92.1875 20.3125V20.3125ZM87.5 79.6875H56.25C55.8356 79.6875 55.4382 79.5229 55.1451 79.2299C54.8521 78.9368 54.6875 78.5394 54.6875 78.125C54.6875 77.7106 54.8521 77.3132 55.1451 77.0201C55.4382 76.7271 55.8356 76.5625 56.25 76.5625H87.5C87.9144 76.5625 88.3118 76.7271 88.6049 77.0201C88.8979 77.3132 89.0625 77.7106 89.0625 78.125C89.0625 78.5394 88.8979 78.9368 88.6049 79.2299C88.3118 79.5229 87.9144 79.6875 87.5 79.6875ZM71.875 73.4375C68.4756 73.4375 65.1526 72.4295 62.3261 70.5409C59.4997 68.6523 57.2967 65.968 55.9958 62.8274C54.6949 59.6868 54.3546 56.2309 55.0178 52.8969C55.6809 49.5628 57.3179 46.5003 59.7216 44.0966C62.1253 41.6929 65.1878 40.0559 68.5219 39.3928C71.8559 38.7296 75.3118 39.0699 78.4524 40.3708C81.593 41.6717 84.2773 43.8747 86.1659 46.7011C88.0545 49.5276 89.0625 52.8506 89.0625 56.25C89.0571 60.8068 87.2446 65.1753 84.0225 68.3975C80.8003 71.6196 76.4318 73.4321 71.875 73.4375V73.4375Z" fill="var(--fill-0, #3996FC)"/>
<path id="Vector_7" d="M64.0932 57.8125H57.9041C58.192 60.343 59.1603 62.7481 60.7059 64.7722C62.2516 66.7964 64.3169 68.3638 66.6823 69.3078C65.0426 65.6933 64.1614 61.781 64.0932 57.8125V57.8125Z" fill="var(--fill-0, #3996FC)"/>
</g>
<path id="Vector_8" d="M40.6249 1.5625C32.8991 1.5625 25.3468 3.85348 18.923 8.14572C12.4992 12.438 7.49243 18.5387 4.53588 25.6764C1.57934 32.8142 0.805768 40.6683 2.313 48.2457C3.82024 55.8231 7.54058 62.7834 13.0036 68.2464C18.4666 73.7093 25.4268 77.4297 33.0042 78.9369C40.5816 80.4442 48.4358 79.6706 55.5735 76.714C62.7112 73.7575 68.812 68.7508 73.1042 62.327C77.3965 55.9032 79.6874 48.3508 79.6874 40.625C79.6705 30.2702 75.5495 20.3443 68.2276 13.0224C60.9056 5.70038 50.9797 1.57944 40.6249 1.5625V1.5625ZM30.0499 6.27813C26.983 9.40821 24.5849 13.1295 23.0015 17.2156C20.9999 16.0835 19.1115 14.7618 17.3624 13.2687C21.0728 10.1009 25.3898 7.7223 30.0499 6.27813V6.27813ZM15.0577 15.4C17.1589 17.2302 19.4501 18.8299 21.8921 20.1719C19.903 26.2749 18.8494 32.644 18.7671 39.0625H4.72649C5.10913 30.165 8.79233 21.729 15.0577 15.4V15.4ZM4.72649 42.1875H18.7718C18.8541 48.606 19.9077 54.9751 21.8968 61.0781C19.4548 62.4201 17.1636 64.0198 15.0624 65.85C8.7953 59.5217 5.11039 51.0857 4.72649 42.1875V42.1875ZM17.3624 67.9859C19.1115 66.4929 20.9999 65.1712 23.0015 64.0391C24.5849 68.1252 26.983 71.8465 30.0499 74.9766C25.3898 73.5324 21.0728 71.1538 17.3624 67.9859V67.9859ZM39.0624 76.4281C33.6827 75.5719 28.9421 70.3484 25.8093 62.6109C29.9832 60.7161 34.4827 59.6424 39.0624 59.4484V76.4281ZM39.0624 56.3234C34.1173 56.5159 29.2545 57.6519 24.7359 59.6703C22.9445 54.0117 21.9875 48.1222 21.8952 42.1875H39.0624V56.3234ZM39.0624 39.0625H21.8952C21.9875 33.1278 22.9445 27.2383 24.7359 21.5797C29.2545 23.5981 34.1173 24.7341 39.0624 24.9266V39.0625ZM39.0624 21.8016C34.4827 21.6076 29.9832 20.5339 25.8093 18.6391C28.9343 10.9016 33.6827 5.67812 39.0624 4.82187V21.8016ZM76.5234 39.0625H62.4781C62.3957 32.644 61.3421 26.2749 59.3531 20.1719C61.7951 18.8299 64.0863 17.2302 66.1874 15.4C72.4546 21.7283 76.1395 30.1643 76.5234 39.0625ZM63.8874 13.2641C62.1384 14.7571 60.25 16.0788 58.2484 17.2109C56.665 13.1248 54.2669 9.40352 51.1999 6.27344C55.8601 7.71761 60.177 10.0962 63.8874 13.2641V13.2641ZM42.1874 4.82187C47.5671 5.67812 52.3077 10.9016 55.4406 18.6391C51.2667 20.5339 46.7671 21.6076 42.1874 21.8016V4.82187ZM42.1874 24.9266C47.1326 24.7341 51.9954 23.5981 56.514 21.5797C58.3054 27.2383 59.2623 33.1278 59.3546 39.0625H42.1874V24.9266ZM42.1874 42.1875H59.3546C59.2623 48.1222 58.3054 54.0117 56.514 59.6703C51.9954 57.6519 47.1326 56.5159 42.1874 56.3234V42.1875ZM42.1874 76.4281V59.4484C46.7671 59.6424 51.2667 60.7161 55.4406 62.6109C52.3077 70.3484 47.5671 75.5719 42.1874 76.4281ZM51.1999 74.9719C54.2669 71.8418 56.665 68.1205 58.2484 64.0344C60.25 65.1665 62.1384 66.4882 63.8874 67.9812C60.177 71.1491 55.8601 73.5277 51.1999 74.9719V74.9719ZM66.1921 65.85C64.091 64.0198 61.7998 62.4201 59.3577 61.0781C61.3468 54.9751 62.4004 48.606 62.4827 42.1875H76.5281C76.1442 51.0857 72.4592 59.5217 66.1921 65.85V65.85Z" fill="var(--fill-0, #C9D3DE)"/>
</g>
</svg>
