<svg preserveAspectRatio="none" width="100%" height="100%" overflow="visible" style="display: block;" viewBox="0 0 100 100" fill="none" xmlns="http://www.w3.org/2000/svg">
<g id="archive 1">
<g id="Group">
<path id="Vector" d="M84.375 87.5C86.1009 87.5 87.5 86.1009 87.5 84.375C87.5 82.6491 86.1009 81.25 84.375 81.25C82.6491 81.25 81.25 82.6491 81.25 84.375C81.25 86.1009 82.6491 87.5 84.375 87.5Z" fill="var(--fill-0, #3996FC)"/>
<path id="Vector_2" d="M81.25 37.5H87.5V71.875H81.25V37.5Z" fill="var(--fill-0, #3996FC)"/>
<path id="Vector_3" d="M93.75 26.5625H75C73.7568 26.5625 72.5645 27.0564 71.6854 27.9354C70.8064 28.8145 70.3125 30.0068 70.3125 31.25V93.75C70.3125 94.9932 70.8064 96.1855 71.6854 97.0646C72.5645 97.9436 73.7568 98.4375 75 98.4375H93.75C94.9932 98.4375 96.1855 97.9436 97.0646 97.0646C97.9436 96.1855 98.4375 94.9932 98.4375 93.75V31.25C98.4375 30.0068 97.9436 28.8145 97.0646 27.9354C96.1855 27.0564 94.9932 26.5625 93.75 26.5625ZM84.375 90.625C83.1389 90.625 81.9305 90.2584 80.9027 89.5717C79.8749 88.8849 79.0738 87.9088 78.6008 86.7668C78.1277 85.6247 78.0039 84.3681 78.2451 83.1557C78.4862 81.9433 79.0815 80.8297 79.9556 79.9556C80.8297 79.0815 81.9433 78.4862 83.1557 78.2451C84.3681 78.0039 85.6247 78.1277 86.7668 78.6008C87.9088 79.0738 88.8849 79.8749 89.5717 80.9027C90.2584 81.9305 90.625 83.1389 90.625 84.375C90.625 86.0326 89.9665 87.6223 88.7944 88.7944C87.6223 89.9665 86.0326 90.625 84.375 90.625ZM90.625 73.4375C90.625 73.8519 90.4604 74.2493 90.1674 74.5424C89.8743 74.8354 89.4769 75 89.0625 75H79.6875C79.2731 75 78.8757 74.8354 78.5826 74.5424C78.2896 74.2493 78.125 73.8519 78.125 73.4375V35.9375C78.125 35.5231 78.2896 35.1257 78.5826 34.8326C78.8757 34.5396 79.2731 34.375 79.6875 34.375H89.0625C89.4769 34.375 89.8743 34.5396 90.1674 34.8326C90.4604 35.1257 90.625 35.5231 90.625 35.9375V73.4375Z" fill="var(--fill-0, #3996FC)"/>
<path id="Vector_4" d="M50 37.5H56.25V71.875H50V37.5Z" fill="var(--fill-0, #3996FC)"/>
<path id="Vector_5" d="M53.125 87.5C54.8509 87.5 56.25 86.1009 56.25 84.375C56.25 82.6491 54.8509 81.25 53.125 81.25C51.3991 81.25 50 82.6491 50 84.375C50 86.1009 51.3991 87.5 53.125 87.5Z" fill="var(--fill-0, #3996FC)"/>
<path id="Vector_6" d="M62.5 26.5625H43.75C42.5068 26.5625 41.3145 27.0564 40.4354 27.9354C39.5564 28.8145 39.0625 30.0068 39.0625 31.25V93.75C39.0625 94.9932 39.5564 96.1855 40.4354 97.0646C41.3145 97.9436 42.5068 98.4375 43.75 98.4375H62.5C63.7432 98.4375 64.9355 97.9436 65.8146 97.0646C66.6936 96.1855 67.1875 94.9932 67.1875 93.75V31.25C67.1875 30.0068 66.6936 28.8145 65.8146 27.9354C64.9355 27.0564 63.7432 26.5625 62.5 26.5625ZM53.125 90.625C51.8889 90.625 50.6805 90.2584 49.6527 89.5717C48.6249 88.8849 47.8238 87.9088 47.3508 86.7668C46.8777 85.6247 46.7539 84.3681 46.9951 83.1557C47.2362 81.9433 47.8315 80.8297 48.7056 79.9556C49.5797 79.0815 50.6933 78.4862 51.9057 78.2451C53.1181 78.0039 54.3747 78.1277 55.5168 78.6008C56.6588 79.0738 57.6349 79.8749 58.3217 80.9027C59.0084 81.9305 59.375 83.1389 59.375 84.375C59.375 86.0326 58.7165 87.6223 57.5444 88.7944C56.3723 89.9665 54.7826 90.625 53.125 90.625ZM59.375 73.4375C59.375 73.8519 59.2104 74.2493 58.9174 74.5424C58.6243 74.8354 58.2269 75 57.8125 75H48.4375C48.0231 75 47.6257 74.8354 47.3326 74.5424C47.0396 74.2493 46.875 73.8519 46.875 73.4375V35.9375C46.875 35.5231 47.0396 35.1257 47.3326 34.8326C47.6257 34.5396 48.0231 34.375 48.4375 34.375H57.8125C58.2269 34.375 58.6243 34.5396 58.9174 34.8326C59.2104 35.1257 59.375 35.5231 59.375 35.9375V73.4375Z" fill="var(--fill-0, #3996FC)"/>
</g>
<path id="Vector_7" d="M75.3531 26.5625H70.3125V25C70.3125 23.7568 69.8186 22.5645 68.9396 21.6854C68.0605 20.8064 66.8682 20.3125 65.625 20.3125H62.5V16.7984C62.4999 15.6633 62.088 14.5668 61.3406 13.7125L52.1109 3.1625C51.6702 2.66012 51.1274 2.25754 50.5187 1.98163C49.9101 1.70572 49.2495 1.56283 48.5812 1.5625H15.625C14.3818 1.5625 13.1895 2.05636 12.3104 2.93544C11.4314 3.81451 10.9375 5.0068 10.9375 6.25V20.3125H6.25C5.0068 20.3125 3.81451 20.8064 2.93544 21.6854C2.05636 22.5645 1.5625 23.7568 1.5625 25V62.5C1.5625 63.7432 2.05636 64.9355 2.93544 65.8146C3.81451 66.6936 5.0068 67.1875 6.25 67.1875H64.9359C65.9183 67.1859 66.8754 66.8756 67.672 66.3006C68.4685 65.7256 69.0642 64.9148 69.375 63.9828L79.7906 32.7328C80.0253 32.0289 80.0896 31.2793 79.9781 30.5458C79.8667 29.8122 79.5826 29.1155 79.1494 28.5131C78.7162 27.9107 78.1461 27.4198 77.4862 27.0807C76.8262 26.7416 76.0951 26.564 75.3531 26.5625ZM65.625 23.4375C66.0394 23.4375 66.4368 23.6021 66.7299 23.8951C67.0229 24.1882 67.1875 24.5856 67.1875 25V26.5625H62.5V23.4375H65.625ZM57.5 14.0625H53.125C52.7106 14.0625 52.3132 13.8979 52.0201 13.6049C51.7271 13.3118 51.5625 12.9144 51.5625 12.5V7.28438L57.5 14.0625ZM15.625 4.6875H48.4375V12.5C48.4375 13.7432 48.9314 14.9355 49.8104 15.8146C50.6895 16.6936 51.8818 17.1875 53.125 17.1875H59.375V26.5625H22.5641C21.5816 26.5641 20.6246 26.8744 19.828 27.4494C19.0315 28.0244 18.4358 28.8352 18.125 29.7672L14.0625 41.9328V6.25C14.0625 5.8356 14.2271 5.43817 14.5201 5.14515C14.8132 4.85212 15.2106 4.6875 15.625 4.6875V4.6875ZM4.6875 62.5V25C4.6875 24.5856 4.85212 24.1882 5.14515 23.8951C5.43817 23.6021 5.8356 23.4375 6.25 23.4375H10.9375V51.3078L6.68594 64.0625H6.25C5.8356 64.0625 5.43817 63.8979 5.14515 63.6049C4.85212 63.3118 4.6875 62.9144 4.6875 62.5ZM76.8344 31.7437L66.4187 62.9938C66.3151 63.305 66.1161 63.5757 65.8499 63.7676C65.5838 63.9594 65.264 64.0626 64.9359 64.0625H9.97969L21.0828 30.7563C21.1864 30.4452 21.3852 30.1747 21.651 29.9829C21.9168 29.7911 22.2363 29.6877 22.5641 29.6875H75.3531C75.6006 29.6877 75.8444 29.7466 76.0646 29.8595C76.2848 29.9724 76.4751 30.1359 76.6197 30.3367C76.7644 30.5375 76.8593 30.7698 76.8966 31.0144C76.9339 31.259 76.9126 31.509 76.8344 31.7437V31.7437Z" fill="var(--fill-0, #C9D3DE)"/>
<path id="Vector_8" d="M23.4375 23.4375H26.5625C27.8057 23.4375 28.998 22.9436 29.8771 22.0646C30.7561 21.1855 31.25 19.9932 31.25 18.75V12.5C31.25 11.2568 30.7561 10.0645 29.8771 9.18544C28.998 8.30636 27.8057 7.8125 26.5625 7.8125H23.4375C22.1943 7.8125 21.002 8.30636 20.1229 9.18544C19.2439 10.0645 18.75 11.2568 18.75 12.5V18.75C18.75 19.9932 19.2439 21.1855 20.1229 22.0646C21.002 22.9436 22.1943 23.4375 23.4375 23.4375ZM21.875 12.5C21.875 12.0856 22.0396 11.6882 22.3326 11.3951C22.6257 11.1021 23.0231 10.9375 23.4375 10.9375H26.5625C26.9769 10.9375 27.3743 11.1021 27.6674 11.3951C27.9604 11.6882 28.125 12.0856 28.125 12.5V18.75C28.125 19.1644 27.9604 19.5618 27.6674 19.8549C27.3743 20.1479 26.9769 20.3125 26.5625 20.3125H23.4375C23.0231 20.3125 22.6257 20.1479 22.3326 19.8549C22.0396 19.5618 21.875 19.1644 21.875 18.75V12.5Z" fill="var(--fill-0, #C9D3DE)"/>
<path id="Vector_9" d="M37.5 10.9375H42.1875C42.6019 10.9375 42.9993 10.7729 43.2924 10.4799C43.5854 10.1868 43.75 9.7894 43.75 9.375C43.75 8.9606 43.5854 8.56317 43.2924 8.27015C42.9993 7.97712 42.6019 7.8125 42.1875 7.8125H37.5C37.0856 7.8125 36.6882 7.97712 36.3951 8.27015C36.1021 8.56317 35.9375 8.9606 35.9375 9.375C35.9375 9.7894 36.1021 10.1868 36.3951 10.4799C36.6882 10.7729 37.0856 10.9375 37.5 10.9375Z" fill="var(--fill-0, #C9D3DE)"/>
<path id="Vector_10" d="M37.5 17.1875H42.1875C42.6019 17.1875 42.9993 17.0229 43.2924 16.7299C43.5854 16.4368 43.75 16.0394 43.75 15.625C43.75 15.2106 43.5854 14.8132 43.2924 14.5201C42.9993 14.2271 42.6019 14.0625 42.1875 14.0625H37.5C37.0856 14.0625 36.6882 14.2271 36.3951 14.5201C36.1021 14.8132 35.9375 15.2106 35.9375 15.625C35.9375 16.0394 36.1021 16.4368 36.3951 16.7299C36.6882 17.0229 37.0856 17.1875 37.5 17.1875Z" fill="var(--fill-0, #C9D3DE)"/>
<path id="Vector_11" d="M37.5 23.4375H53.125C53.5394 23.4375 53.9368 23.2729 54.2299 22.9799C54.5229 22.6868 54.6875 22.2894 54.6875 21.875C54.6875 21.4606 54.5229 21.0632 54.2299 20.7701C53.9368 20.4771 53.5394 20.3125 53.125 20.3125H37.5C37.0856 20.3125 36.6882 20.4771 36.3951 20.7701C36.1021 21.0632 35.9375 21.4606 35.9375 21.875C35.9375 22.2894 36.1021 22.6868 36.3951 22.9799C36.6882 23.2729 37.0856 23.4375 37.5 23.4375Z" fill="var(--fill-0, #C9D3DE)"/>
</g>
</svg>
