<svg width="132" height="132" viewBox="0 0 132 132" fill="none" xmlns="http://www.w3.org/2000/svg">
<g opacity="0.7">
<path d="M50.3795 42.3824L40.1496 94.9396L38.8203 101.82L107.048 101.473C110.112 101.444 112.828 98.7267 113.811 94.7083L125.919 45.0999C126.67 42.0355 125.023 38.8555 122.711 38.8555L53.6739 38.9422C52.1134 38.9133 50.7841 40.3298 50.3795 42.3824Z" fill="#3789ED"/>
<path d="M100.517 91.3863L93.2923 33.1629C93.0033 30.7635 91.096 29 88.842 29L73.0059 29.0578C71.8211 29.0578 70.723 29.5493 69.8849 30.4455L62.3715 38.4533L18.331 38.6846C15.6435 38.6846 13.5628 41.2576 13.9385 44.1196L20.6428 97.9487C20.9318 100.319 22.8391 102.112 25.0642 102.112L101.817 101.967C110.371 102.141 111.18 99.6255 111.18 99.6255C101.384 101.736 100.517 91.3863 100.517 91.3863Z" fill="#6CB3F8"/>
<g opacity="0.5">
<path opacity="0.5" d="M67.3982 79.7339L64.8263 82.5092L44.8867 64.5565L47.4586 61.7812L67.3982 79.7339Z" fill="white"/>
<path opacity="0.5" d="M63.7276 61.1758L66.5885 63.7487L48.5562 83.1469L45.6953 80.545L63.7276 61.1758Z" fill="white"/>
</g>
</g>
</svg>
