<svg width="132" height="132" viewBox="0 0 132 132" fill="none" xmlns="http://www.w3.org/2000/svg">
<g id="request" opacity="0.7">
<g id="Background Complete">
<g id="Group">
<path id="Vector" d="M132 100.953H0V101.006H132V100.953Z" fill="#DEE5EC"/>
<path id="Vector_2" d="M118.774 105.203H110.035V105.256H118.774V105.203Z" fill="#DEE5EC"/>
<path id="Vector_3" d="M106.709 105.203H88.0176V105.256H106.709V105.203Z" fill="#DEE5EC"/>
<path id="Vector_4" d="M77.6958 102.75H72.627V102.803H77.6958V102.75Z" fill="#DEE5EC"/>
<path id="Vector_5" d="M22.9155 103.195H13.8604V103.248H22.9155V103.195Z" fill="#DEE5EC"/>
<path id="Vector_6" d="M41.7118 103.195H25.2646V103.248H41.7118V103.195Z" fill="#DEE5EC"/>
<path id="Vector_7" d="M59.4261 104.305H49.7109V104.357H59.4261V104.305Z" fill="#DEE5EC"/>
<path id="Vector_8" d="M62.5682 89.1787H11.5898C10.7714 89.1787 10.085 88.4923 10.085 87.6739V16.0243C10.085 15.2059 10.7714 14.5195 11.5898 14.5195H62.5682C63.3866 14.5195 64.073 15.2059 64.073 16.0243V87.6739C64.073 88.4923 63.413 89.1787 62.5682 89.1787ZM11.5898 14.5723C10.7978 14.5723 10.1378 15.2059 10.1378 16.0243V87.6739C10.1378 88.4659 10.7714 89.1259 11.5898 89.1259H62.5682C63.3602 89.1259 64.0202 88.4923 64.0202 87.6739V16.0243C64.0202 15.2323 63.3866 14.5723 62.5682 14.5723H11.5898Z" fill="#DEE5EC"/>
<path id="Vector_9" d="M119.672 89.1787H68.6933C67.8749 89.1787 67.1885 88.4923 67.1885 87.6739V16.0243C67.1885 15.2059 67.8749 14.5195 68.6933 14.5195H119.672C120.49 14.5195 121.176 15.2059 121.176 16.0243V87.6739C121.176 88.4923 120.516 89.1787 119.672 89.1787ZM68.6933 14.5723C67.9013 14.5723 67.2413 15.2059 67.2413 16.0243V87.6739C67.2413 88.4659 67.8749 89.1259 68.6933 89.1259H119.672C120.464 89.1259 121.124 88.4923 121.124 87.6739V16.0243C121.124 15.2323 120.49 14.5723 119.672 14.5723H68.6933Z" fill="#DEE5EC"/>
</g>
<g id="Group_2">
<g id="Group_3">
<g id="Group_4">
<g id="Group_5">
<path id="Vector_10" d="M20.0287 50.9961L55.8535 50.9961L55.8535 19.9497L20.0287 19.9497L20.0287 50.9961Z" fill="#E6E6E6"/>
<path id="Vector_11" d="M19.2279 50.9961L55.0527 50.9961L55.0527 19.9497L19.2279 19.9497L19.2279 50.9961Z" fill="#F5F5F5"/>
<path id="Vector_12" d="M53.6191 49.9108L53.6191 21.082L20.6455 21.082L20.6455 49.9108L53.6191 49.9108Z" fill="#FAFAFA"/>
<path id="Vector_13" d="M40.3915 49.8962L46.3579 21.0938H33.8707L27.9043 49.8962H40.3915Z" fill="white"/>
<path id="Vector_14" d="M21.2539 49.9108L21.2539 21.082H20.6467L20.6467 49.9108H21.2539Z" fill="#E6E6E6"/>
<path id="Vector_15" d="M19.8095 44.7344L54.4463 44.7344V43.256L19.8095 43.256V44.7344Z" fill="#F5F5F5"/>
</g>
</g>
</g>
<g id="Group_6">
<path id="Vector_16" d="M54.1892 99.3711H59.918V74.5551H54.1892V99.3711Z" fill="#F0F0F0"/>
<path id="Vector_17" d="M16.8375 100.961H58.8135V99.3769H16.8375V100.961Z" fill="#F0F0F0"/>
<path id="Vector_18" d="M54.1992 74.5781H15.7344V99.3941H54.1992V74.5781Z" fill="#DEE5EC"/>
<path id="Vector_19" d="M51.9289 77.6133H17.9785V85.7445H51.9289V77.6133Z" fill="#F3F6F9"/>
<path id="Vector_20" d="M51.9289 88.1992H17.9785V96.3304H51.9289V88.1992Z" fill="#F3F6F9"/>
<path id="Vector_21" d="M25.7927 82.2611H44.0879C44.4047 82.2611 44.6423 81.9971 44.6423 81.7067C44.6423 81.3899 44.3783 81.1523 44.0879 81.1523H25.7927C25.4759 81.1523 25.2383 81.4163 25.2383 81.7067C25.2383 81.9971 25.5023 82.2611 25.7927 82.2611Z" fill="#F5F5F5"/>
<path id="Vector_22" d="M25.7927 92.8197H44.0879C44.4047 92.8197 44.6423 92.5557 44.6423 92.2653C44.6423 91.9485 44.3783 91.7109 44.0879 91.7109H25.7927C25.4759 91.7109 25.2383 91.9749 25.2383 92.2653C25.2383 92.5557 25.5023 92.8197 25.7927 92.8197Z" fill="#F5F5F5"/>
</g>
<g id="Group_7">
<path id="Vector_23" d="M113.942 36.1902C117.189 35.2926 118.325 29.379 110.088 26.9766C111.909 32.9166 108.266 37.7478 113.942 36.1902Z" fill="#EBEBEB"/>
<path id="Vector_24" d="M114.681 38.7515C117.242 35.9795 114.813 29.6963 105.573 32.2571C110.8 36.8507 110.193 43.6091 114.681 38.7515Z" fill="#E0E0E0"/>
<path id="Vector_25" d="M112.121 39.4624C109.983 37.324 113.045 29.932 120.147 33.364C116.134 37.2184 115.87 43.1848 112.121 39.4624Z" fill="#FAFAFA"/>
<g id="Group_8">
<path id="Vector_26" d="M109.982 43.6068H116.239L116.714 39.3828H109.507L109.982 43.6068Z" fill="#E6E6E6"/>
<path id="Vector_27" d="M109.454 40.1496H116.793C117.057 40.1496 117.268 39.9384 117.268 39.6744C117.268 39.4104 117.057 39.1992 116.793 39.1992H109.454C109.19 39.1992 108.979 39.4104 108.979 39.6744C108.979 39.9384 109.19 40.1496 109.454 40.1496Z" fill="#E6E6E6"/>
</g>
</g>
<g id="Group_9">
<path id="Vector_28" d="M57.3668 93.7958V86.615H63.3332V79.4606H69.2996V72.2798H75.2924V65.1254H81.2588V57.9446H87.2252V50.7902H93.1916V43.6094H99.158H132V100.95H57.3668H51.4004V93.7958H57.3668Z" fill="#FAFAFA"/>
<path id="Vector_29" d="M90.2086 93.7958V86.615H96.175V79.4606H102.141V72.2798H108.108V65.1254H114.101V57.9446H120.067V50.7902H126.033V43.6094H132V50.7902V100.95H90.2086H84.2422V93.7958H90.2086Z" fill="#DEE5EC"/>
<g id="Group_10">
<path id="Vector_30" d="M84.2424 93.7969H51.0576V95.9353H84.2424V93.7969Z" fill="#EBEBEB"/>
<path id="Vector_31" d="M90.2092 86.6133H57.0244V88.7517H90.2092V86.6133Z" fill="#EBEBEB"/>
<path id="Vector_32" d="M96.176 79.4609H62.9912V81.5993H96.176V79.4609Z" fill="#EBEBEB"/>
<path id="Vector_33" d="M102.142 72.2812H68.957V74.4196H102.142V72.2812Z" fill="#EBEBEB"/>
<path id="Vector_34" d="M108.108 65.125H74.9229V67.2634H108.108V65.125Z" fill="#EBEBEB"/>
<path id="Vector_35" d="M114.074 57.9453H80.8896V60.0837H114.074V57.9453Z" fill="#DEE5EC"/>
<path id="Vector_36" d="M120.068 50.7891H86.8828V52.9275H120.068V50.7891Z" fill="#DEE5EC"/>
<path id="Vector_37" d="M126.033 43.6094H92.8486V45.7478H126.033V43.6094Z" fill="#DEE5EC"/>
</g>
</g>
</g>
</g>
<g id="Shadow 1">
<path id="x3C Path x3E  61" d="M65.9992 112.861C94.2704 112.861 117.189 111.525 117.189 109.878C117.189 108.23 94.2704 106.895 65.9992 106.895C37.7279 106.895 14.8096 108.23 14.8096 109.878C14.8096 111.525 37.7279 112.861 65.9992 112.861Z" fill="#DEE5EC"/>
</g>
<g id="Folder">
<g id="Group_11">
<path id="Vector_38" opacity="0.2" d="M82.5792 64.3894C70.092 69.247 56.0208 63.043 51.1632 50.5558C46.3056 38.0686 52.5096 23.9974 64.9968 19.1662C77.484 14.3086 91.5552 20.5126 96.4128 32.9998C101.27 45.487 95.0664 59.5318 82.5792 64.3894Z" fill="#407BFF"/>
<path id="Vector_39" opacity="0.1" d="M78.1967 17.8998L59.1623 61.1166C58.8719 60.9054 58.5815 60.6678 58.2911 60.4302C56.4695 58.9254 54.8591 57.1566 53.5391 55.1238L69.9863 17.7942C72.7583 17.3718 75.5303 17.4246 78.1967 17.8998Z" fill="white"/>
<path id="Vector_40" opacity="0.1" d="M91.7133 25.4257L73.8141 66.0553C70.0653 66.0553 66.3957 65.1841 63.0957 63.5737L82.6317 19.1953C86.0637 20.5153 89.1789 22.6537 91.7133 25.4257Z" fill="white"/>
<path id="Vector_41" d="M53.8293 25.4246C62.8581 14.3894 79.1205 12.779 90.1557 21.8078C101.191 30.8366 102.801 47.099 93.7725 58.1342C84.7437 69.1694 68.4813 70.7798 57.4461 61.751C46.4109 52.7222 44.8005 36.4598 53.8293 25.4246ZM92.1357 56.7878C100.425 46.6502 98.9469 31.7342 88.8093 23.4446C78.6717 15.155 63.7557 16.6334 55.4661 26.771C47.1765 36.9086 48.6549 51.8246 58.7925 60.1142C68.9037 68.4038 83.8461 66.899 92.1357 56.7878Z" fill="#3996FC"/>
<path id="Vector_42" d="M94.4059 56.6841C96.9403 58.2153 99.3691 59.8785 101.745 61.5945C104.121 63.3105 106.444 65.1057 108.715 66.9537C110.985 68.8017 113.229 70.6761 115.394 72.6825C116.476 73.6857 117.532 74.6889 118.562 75.7449C119.592 76.8009 120.621 77.8569 121.572 78.9921C122.1 79.6257 122.02 80.5497 121.387 81.0777C120.912 81.4737 120.252 81.5265 119.724 81.2361C118.404 80.5233 117.163 79.7313 115.922 78.9393C114.681 78.1209 113.493 77.3025 112.305 76.4313C109.929 74.7153 107.632 72.8937 105.388 71.0193C103.144 69.1449 100.927 67.2441 98.7619 65.2377C96.5971 63.2577 94.4851 61.1985 92.5051 59.0073C91.9243 58.3737 91.9771 57.4233 92.6107 56.8425C93.1123 56.4201 93.8515 56.3673 94.4059 56.6841Z" fill="#3996FC"/>
</g>
<g id="Group_12">
<path id="Vector_43" d="M81.2596 60.5896C81.7084 59.296 83.002 58.3984 84.3484 58.3984H105.468C107.079 58.3984 108.214 59.6656 108.029 61.2232L102.564 107.027C102.38 108.585 100.928 109.852 99.3172 109.852H32.2612C30.6508 109.852 29.5156 108.585 29.7004 107.027L34.3204 68.5624C34.5052 67.0048 35.9572 65.7376 37.5676 65.7376H74.0524C77.2204 65.7376 80.2036 63.5992 81.2596 60.5896Z" fill="#4EA6FD"/>
<g id="Group_13">
<path id="Vector_44" d="M30.9414 107.765H101.007L105.02 60.6406H34.9542L30.9414 107.765Z" fill="#F0F0F0"/>
<path id="Vector_45" d="M30.9414 107.765H101.007L103.911 60.6406H34.9542L30.9414 107.765Z" fill="#E0E0E0"/>
<path id="Vector_46" d="M30.9414 107.766H101.007L103.436 59.1367H33.3702L30.9414 107.766Z" fill="#F0F0F0"/>
<path id="Vector_47" d="M30.9414 107.766H101.007L101.957 59.1367H33.3702L30.9414 107.766Z" fill="#E0E0E0"/>
<path id="Vector_48" d="M30.9414 107.765H101.007L101.429 57.8164H31.3638L30.9414 107.765Z" fill="#F0F0F0"/>
<path id="Vector_49" d="M30.9416 107.764H101.007L99.5816 58.7656H29.9648L30.9416 107.764Z" fill="#E0E0E0"/>
<path id="Vector_50" d="M30.942 107.766H101.008L98.9484 59.1367H28.8828L30.942 107.766Z" fill="#F0F0F0"/>
<path id="Vector_51" d="M30.9416 107.765H101.007L97.7072 59.875H27.6416L30.9416 107.765Z" fill="#E0E0E0"/>
<path id="Vector_52" d="M30.9413 107.763H101.007L97.1789 60.2695H27.1133L30.9413 107.763Z" fill="#F0F0F0"/>
</g>
<g id="Group_14">
<path id="Vector_53" d="M66.0264 63.5721C66.0792 62.2521 67.056 61.3281 68.4288 61.3281H89.5489C91.1593 61.3281 92.7169 62.6217 93.0072 64.2321L101.35 107C101.666 108.611 100.61 109.904 99.0265 109.904H31.9704C30.36 109.904 28.8024 108.611 28.512 107L21.6216 71.7297C21.3048 70.1193 22.3608 68.8257 23.9448 68.8257H60.456C63.624 68.8257 65.9208 66.6609 66.0264 63.5721Z" fill="#6CB3F8"/>
</g>
</g>
</g>
</g>
</svg>
