<svg preserveAspectRatio="none" width="100%" height="100%" overflow="visible" style="display: block;" viewBox="0 0 120 120" fill="none" xmlns="http://www.w3.org/2000/svg">
<g id="interface-alert-warning-triangle">
<g id="Rectangle 128">
<path d="M15.2806 112.984C7.98258 112.274 3.28504 106.029 5.59063 98.9909C8.35182 90.562 13.7223 77.3358 24.168 57.7733C35.4145 36.7107 44.7001 22.9935 50.9986 14.7006C55.7587 8.43315 64.2413 8.43315 69.0014 14.7006C75.2999 22.9935 84.5855 36.7107 95.832 57.7733C106.278 77.3358 111.648 90.5619 114.409 98.9909C116.715 106.029 112.017 112.274 104.719 112.984C94.8676 113.943 79.5719 115 60 115C40.4281 115 25.1324 113.943 15.2806 112.984Z" fill="#F3F6F9"/>
</g>
<g id="Union">
<path d="M54.4482 35.7397C51.4448 36.5971 50.1053 39.6777 50.3101 42.7945C50.7824 49.9811 51.7362 63.2397 52.7645 70.3578C53.0686 72.4636 54.2898 74.302 56.3805 74.6963C57.3216 74.8737 58.5135 75 60 75C61.4865 75 62.6784 74.8737 63.6195 74.6963C65.7102 74.302 66.9314 72.4636 67.2356 70.3578C68.2638 63.2397 69.2176 49.9811 69.6899 42.7945C69.8947 39.6777 68.5552 36.5971 65.5518 35.7397C64.0709 35.3169 62.2203 35 60 35C57.7797 35 55.9291 35.3169 54.4482 35.7397Z" fill="var(--fill-0, #C9D3DE)"/>
<path d="M60 102.5C65.5228 102.5 70 98.0228 70 92.5C70 86.9772 65.5228 82.5 60 82.5C54.4772 82.5 50 86.9772 50 92.5C50 98.0228 54.4772 102.5 60 102.5Z" fill="var(--fill-0, #C9D3DE)"/>
</g>
</g>
</svg>
