<svg width="32" height="32" viewBox="0 0 32 32" fill="none" xmlns="http://www.w3.org/2000/svg">
<g clip-path="url(#clip0_7084_238580)">
<path d="M31.9564 15.1885C31.9346 14.9491 31.9346 14.688 31.8911 14.4486C31.8694 14.1005 31.8041 13.7523 31.7606 13.4042C31.7164 13.0524 31.651 12.7036 31.5647 12.3597C31.3947 11.6899 31.1913 11.029 30.9554 10.3795C30.6502 9.5744 30.3026 8.79104 29.8674 8.0512C29.5089 7.43018 29.1088 6.83406 28.67 6.26688C28.2582 5.74651 27.8225 5.2455 27.3644 4.76544C27.1468 4.52608 26.885 4.30848 26.6457 4.09088C26.2401 3.73168 25.819 3.39045 25.3836 3.06816C24.7084 2.56768 23.9692 2.13248 23.2287 1.7408C22.8153 1.5232 22.3794 1.34912 21.9442 1.15328C21.1826 0.84864 20.421 0.60928 19.6377 0.41344C19.0856 0.278464 18.5258 0.176734 17.9615 0.1088C17.5916 0.06528 17.2217 0.02176 16.8518 0.02176C16.8076 0.02176 16.7647 0.06528 16.743 0H15.2844C15.2844 0.02176 15.2626 0.02176 15.2409 0.02176C15.0886 0.02176 14.9362 0.02176 14.7622 0.04352C14.414 0.06528 14.0876 0.1088 13.7388 0.15232C13.3906 0.19584 13.0425 0.28288 12.6943 0.34816C12.1346 0.459881 11.5821 0.605211 11.0399 0.78336C10.583 0.93568 10.126 1.10976 9.71256 1.28384C9.08152 1.54496 8.494 1.8496 7.90584 2.19776C7.33545 2.5273 6.78999 2.89822 6.27384 3.30752C5.7516 3.6992 5.27224 4.15616 4.79352 4.59136C4.5324 4.83072 4.3148 5.09184 4.07544 5.35296C3.70552 5.74464 3.37912 6.17984 3.05272 6.61504C2.57682 7.28508 2.14086 7.98261 1.74712 8.704C1.4636 9.248 1.22424 9.81376 1.00664 10.3795C0.832561 10.8582 0.658481 11.337 0.527921 11.8374C0.397361 12.2944 0.310321 12.7731 0.223281 13.2518C0.158001 13.687 0.0927209 14.1222 0.0492009 14.5574C0.00568086 14.8186 0.00568086 15.0797 0.00568086 15.3408C0.00568086 15.8195 -0.0167191 16.2982 0.0274409 16.777C0.0492009 17.2122 0.0927209 17.6256 0.136241 18.0608C0.158001 18.3219 0.201521 18.6048 0.245041 18.8659C0.353841 19.3446 0.440881 19.8451 0.593201 20.3238C0.768363 20.9616 0.986461 21.5868 1.246 22.1952C1.44184 22.6304 1.63768 23.0656 1.85528 23.5008C2.05112 23.8707 2.26872 24.2624 2.50808 24.6106C2.87864 25.1763 3.26968 25.7421 3.72728 26.2643C4.0972 26.6995 4.48888 27.113 4.90232 27.5264C5.41444 28.0118 5.95217 28.4694 6.5132 28.8973C7.10072 29.3325 7.71 29.7242 8.34168 30.0723C8.7116 30.2899 9.10328 30.464 9.51672 30.6381C9.9699 30.8288 10.427 31.0102 10.8876 31.1821C11.4105 31.3562 11.9545 31.5085 12.4985 31.639C12.7814 31.7043 13.0642 31.7478 13.3254 31.7914C13.6082 31.8349 13.8911 31.8784 14.1746 31.9002C14.5663 31.9437 14.9798 31.9872 15.3714 31.9872C16.0025 32.009 16.6118 32.009 17.2434 31.9437C17.5481 31.9219 17.8527 31.9002 18.1574 31.8566C18.5055 31.8131 18.8319 31.7478 19.1801 31.6826C19.7711 31.5739 20.3532 31.4211 20.9215 31.2256C21.3785 31.0733 21.8354 30.8992 22.2706 30.7251C22.8941 30.4643 23.4979 30.1589 24.0774 29.8112C24.6477 29.4817 25.1932 29.1107 25.7094 28.7014C26.2534 28.288 26.7334 27.8528 27.2332 27.3958C27.5378 27.0912 27.8431 26.7648 28.126 26.4384C28.3436 26.1773 28.5612 25.9162 28.7788 25.6333C29.1052 25.1981 29.4098 24.7411 29.6927 24.2842C30.1067 23.6083 30.4704 22.9028 30.7807 22.1734C31.0551 21.5067 31.2879 20.8236 31.4777 20.128C31.6082 19.6493 31.6953 19.1706 31.7823 18.6918C31.8476 18.3872 31.8911 18.0826 31.9129 17.7562C31.9564 17.3862 31.9782 16.9946 31.9999 16.6246C31.9782 16.1242 31.9999 15.6454 31.9564 15.1885ZM26.7545 27.2C24.1644 29.7242 21.0086 31.1603 17.3958 31.465C12.4767 31.8566 8.23224 30.2899 4.79416 26.743C1.70232 23.5661 0.266161 19.7146 0.462001 15.2973C0.636721 11.1629 2.24632 7.616 5.22872 4.76544C8.42872 1.7408 12.2815 0.28288 16.6783 0.47872C20.5522 0.63104 23.9257 2.08896 26.7334 4.76544C29.541 7.44192 31.0866 10.7712 31.5001 14.8403C31.8047 19.5405 30.2809 23.7619 26.7551 27.2H26.7545Z" fill="#252C39"/>
<path d="M30.2822 15.4482C30.0646 12.9893 29.6294 11.3355 28.889 9.76879C28.1395 8.17548 27.0986 6.73635 25.8202 5.52559C24.5581 4.30703 23.1213 3.37135 21.511 2.67503C19.9226 1.9836 18.2151 1.60673 16.4832 1.56527C12.5869 1.45647 9.14816 2.67503 6.29696 5.37327C2.79296 8.65903 1.29088 12.7717 1.74784 17.5589C2.05248 20.7141 3.29344 23.4776 5.44832 25.7842C8.64768 29.2222 12.6086 30.7672 17.2666 30.3973C20.4877 30.1362 23.3171 28.8741 25.6678 26.6546C29.063 23.4123 30.5216 19.4085 30.2822 15.4482ZM26.4077 25.523C23.6218 28.6347 20.1178 30.1797 15.9821 30.2014C12.5651 30.2232 9.47456 29.0917 6.88448 26.8286C3.55456 23.9781 1.8784 20.3006 1.90016 15.9051C1.92192 11.7925 3.46752 8.31087 6.47104 5.50383C9.1264 3.02319 12.3258 1.76111 15.9603 1.78287C20.0525 1.80463 23.5347 3.34959 26.3206 6.37423C28.4538 8.68079 29.6506 11.4443 30.0211 14.8606C30.304 18.7339 29.1936 22.4114 26.4077 25.523Z" fill="#252C39"/>
<path d="M28.5826 15.1248C28.2562 11.7956 27.0377 9.18435 24.8834 7.05187C22.5762 4.76707 19.7686 3.52675 16.525 3.39619C12.8687 3.26563 9.69113 4.48419 7.10105 7.05187C4.75033 9.35843 3.51001 12.1872 3.37945 15.473C3.24889 18.9328 4.35865 21.9792 6.70937 24.5469C9.06009 27.0928 11.9983 28.4637 15.4588 28.616C19.1151 28.7684 22.2934 27.528 24.8834 24.9604C27.6687 22.1533 28.8444 18.7588 28.5826 15.1248ZM24.7529 24.7645C22.6409 26.897 20.0297 28.1156 17.0262 28.3549C13.2169 28.6596 9.90937 27.441 7.20985 24.7645C4.98969 22.5668 3.77113 19.8468 3.61881 16.7133C3.44473 13.1664 4.55449 10.0765 7.01401 7.48707C9.45177 4.89763 12.4988 3.6138 16.0252 3.59204C18.0924 3.57028 20.0732 4.09251 21.9011 5.09347C23.7513 6.11619 25.2751 7.50883 26.4066 9.29315C27.517 11.034 28.1698 12.9271 28.365 15.2554C28.5826 18.7805 27.4076 22.0663 24.7522 24.7645H24.7529Z" fill="#252C39"/>
<path d="M27.0384 15.1027C26.712 12.1869 25.6023 9.83678 23.5997 7.96542C21.5971 6.0723 19.2029 5.04958 16.4611 4.94078C13.3482 4.81022 10.6058 5.83294 8.34275 7.98718C6.20963 10.0326 5.05571 12.5568 4.92515 15.5161C4.79459 18.6278 5.81795 21.3913 7.97219 23.6326C10.4535 26.2003 13.5005 27.3318 17.0704 27.0054C19.5952 26.7878 21.7936 25.7651 23.6215 24.0025C26.1898 21.5219 27.2778 18.4537 27.0391 15.1027H27.0384ZM23.4698 23.8502C21.6631 25.6128 19.4653 26.6137 16.9405 26.8096C13.5229 27.0925 10.5629 25.9827 8.16931 23.5238C6.40611 21.7177 5.38275 19.4982 5.18691 16.9741C4.90403 13.5142 6.01443 10.5549 8.51747 8.1395C10.5847 6.13758 13.1319 5.13662 16.0042 5.13662C18.8119 5.13662 21.2714 6.09406 23.3392 8.00894C25.4064 9.90206 26.5392 12.2739 26.8215 15.0374C27.0173 18.4973 25.9511 21.4566 23.4698 23.8502Z" fill="#252C39"/>
<path d="M25.3848 15.2323C25.1237 12.9257 24.2968 11.0543 22.8165 9.50938C21.0533 7.65978 18.8984 6.68058 16.3525 6.57178C13.7624 6.46298 11.4987 7.31162 9.58318 9.07418C7.66766 10.8367 6.6667 13.0345 6.5579 15.6022C6.4491 18.2351 7.3195 20.5417 9.12622 22.4566C10.867 24.3062 13.0437 25.3071 15.5902 25.3942C18.4414 25.503 20.8792 24.502 22.8382 22.4131C24.7966 20.3676 25.6024 17.8652 25.3848 15.2323ZM22.2501 22.7612C20.4657 24.4367 18.2891 25.2636 15.8296 25.2201C13.2184 25.1766 10.9976 24.1756 9.21326 22.2607C7.5371 20.4547 6.73198 18.3004 6.7755 15.8415C6.81902 13.3174 7.7547 11.1414 9.58318 9.37882C11.3899 7.61626 13.6094 6.74586 16.1342 6.78938C18.7461 6.8329 20.9662 7.83386 22.7512 9.74874C24.1656 11.2719 24.9489 13.078 25.1889 15.4063C25.3848 18.1263 24.4485 20.694 22.2501 22.7612Z" fill="#252C39"/>
<path d="M23.794 15.47C23.6199 13.4246 22.8365 11.7491 21.4215 10.3999C20.0071 9.02907 18.3092 8.28923 16.3501 8.20219C14.1088 8.11515 12.1498 8.85499 10.5389 10.3999C9.05923 11.8143 8.27523 13.5769 8.18819 15.6223C8.07939 17.8636 8.81987 19.822 10.3866 21.4323C12.1063 23.1731 14.2176 23.9564 16.6548 23.7606C18.505 23.6083 20.1159 22.8684 21.4432 21.5628C23.1629 19.8873 23.9245 17.7983 23.794 15.47ZM21.3562 21.3887C19.8765 22.8684 18.048 23.6083 15.9584 23.6083C13.8695 23.6083 12.0628 22.8467 10.5824 21.367C9.10275 19.8873 8.36227 18.0812 8.36227 15.9923C8.36227 14.0556 9.01507 12.3366 10.3431 10.8787C11.6487 9.44251 13.3031 8.63739 15.2186 8.41979C17.4605 8.24571 19.4413 8.85499 21.0951 10.3564C22.7495 11.8579 23.5975 13.751 23.5975 15.9923C23.5975 18.0812 22.8359 19.9091 21.3562 21.3887Z" fill="#252C39"/>
<path d="M22.3583 15.4718C22.1849 13.8616 21.5532 12.5125 20.4217 11.4027C19.2678 10.2929 17.8969 9.70542 16.3296 9.61838C14.5888 9.53134 13.0432 10.0753 11.7376 11.2504C10.4096 12.4472 9.71323 13.9269 9.62619 15.6677C9.53915 17.4085 10.0832 18.9534 11.2582 20.2373C12.695 21.804 14.48 22.5003 16.5907 22.3262C17.984 22.2174 19.2243 21.6734 20.2694 20.716C21.7926 19.3233 22.4895 17.539 22.3583 15.4718ZM20.4652 20.2373C19.3331 21.4123 17.9404 22.0433 16.3948 22.1521C14.3712 22.2174 12.7168 21.5429 11.3894 20.1067C10.4966 19.1275 9.97499 17.9742 9.84379 16.6469C9.64795 14.5797 10.3008 12.8171 11.8246 11.4245C12.9344 10.4017 14.2624 9.8795 15.7862 9.83598C17.7011 9.79246 19.2896 10.4888 20.5734 11.8814C21.6403 13.0347 22.1625 14.4491 22.1625 16.0158C22.1625 17.6261 21.5968 19.0622 20.4652 20.2373Z" fill="#252C39"/>
<path d="M14.9409 17.5484C14.9844 18.3548 14.2881 18.9218 13.6584 18.9436C12.724 18.9871 12.1582 18.2677 12.1582 17.5701C12.1582 16.7855 12.7668 16.1967 13.506 16.1749C14.267 16.1096 15.0062 16.8072 14.9409 17.5484ZM17.0497 17.5701C16.9844 16.7637 17.7236 16.1532 18.3976 16.1532C19.2232 16.1756 19.7889 16.7637 19.8107 17.5266C19.8107 18.2895 19.2667 18.8783 18.4846 18.9218C17.6801 18.9871 16.9844 18.2895 17.0497 17.5701ZM15.9841 14.8021C15.2449 14.8239 14.658 14.1698 14.6363 13.5157C14.5928 12.6005 15.2667 12.0117 16.0059 12.0117C16.8321 12.0117 17.3972 12.6005 17.3972 13.4287C17.3755 14.2133 16.8104 14.8021 15.9841 14.8021Z" fill="#EC1C3D"/>
</g>
<defs>
<clipPath id="clip0_7084_238580">
<rect width="32" height="32" fill="white"/>
</clipPath>
</defs>
</svg>
