<svg preserveAspectRatio="none" width="100%" height="100%" overflow="visible" style="display: block;" viewBox="0 0 100 100" fill="none" xmlns="http://www.w3.org/2000/svg">
<g id="image 2">
<circle id="Ellipse 28" cx="66" cy="65" r="22" fill="var(--fill-0, #3996FC)"/>
<path id="Vector" d="M91.9929 67.5141C91.7386 67.2283 91.5979 66.8591 91.5976 66.4766V61.6484C91.5984 61.2662 91.7383 60.8974 91.9914 60.6109L96.2664 55.7906C96.9191 55.0547 97.3237 54.132 97.423 53.1533C97.5223 52.1747 97.3111 51.1895 96.8195 50.3375L92.821 43.4125C92.3303 42.5593 91.5827 41.8828 90.6849 41.4794C89.7871 41.0759 88.7849 40.9661 87.821 41.1656L81.507 42.4563C81.1331 42.533 80.744 42.4702 80.4132 42.2797L76.2335 39.8672C75.9022 39.6758 75.6525 39.3695 75.532 39.0063L73.5007 32.8922C73.1892 31.9579 72.5913 31.1455 71.792 30.5703C70.9926 29.9951 70.0324 29.6862 69.0476 29.6875H61.0523C60.0683 29.6872 59.1091 29.9965 58.3107 30.5717C57.5123 31.1469 56.9151 31.9587 56.6039 32.8922L54.5726 39.0047C54.4504 39.3674 54.2005 39.6734 53.8695 39.8656L49.6867 42.2797C49.3559 42.4702 48.9668 42.533 48.5929 42.4563L42.282 41.1656C41.3182 40.9681 40.3167 41.0788 39.4193 41.482C38.5219 41.8853 37.7742 42.5607 37.282 43.4125L33.2804 50.3375C32.7886 51.1894 32.5772 52.1744 32.6761 53.1531C32.7751 54.1318 33.1795 55.0545 33.832 55.7906L38.107 60.6109C38.3608 60.8969 38.5008 61.2661 38.5007 61.6484V66.4766C38.5008 66.8589 38.3608 67.2281 38.107 67.5141L33.832 72.3344C33.1795 73.0705 32.7751 73.9933 32.6761 74.9719C32.5772 75.9506 32.7886 76.9356 33.2804 77.7875L37.2773 84.7125C37.7684 85.5654 38.516 86.2416 39.4137 86.645C40.3114 87.0484 41.3135 87.1584 42.2773 86.9594L48.5914 85.6688C48.9653 85.5934 49.3539 85.6561 49.6851 85.8453L53.8632 88.2578C54.1945 88.4498 54.4444 88.7559 54.5664 89.1188L56.5976 95.2328C56.9092 96.1673 57.5073 96.9799 58.307 97.5552C59.1066 98.1304 60.0672 98.4392 61.0523 98.4375H69.0476C70.0316 98.4379 70.9908 98.1285 71.7892 97.5533C72.5876 96.9782 73.1848 96.1663 73.496 95.2328L75.5273 89.1203C75.6478 88.7571 75.8975 88.4508 76.2289 88.2594L80.4085 85.8453C80.7401 85.657 81.1283 85.5944 81.5023 85.6688L87.8132 86.9594C88.7771 87.1591 89.7794 87.0495 90.6772 86.646C91.5751 86.2425 92.3226 85.5659 92.8132 84.7125L96.8117 77.7875C97.3033 76.9355 97.5145 75.9504 97.4152 74.9717C97.3159 73.993 96.9113 73.0703 96.2585 72.3344L91.9929 67.5141ZM49.9835 75.4688C49.5821 75.7005 49.1209 75.8081 48.6584 75.7778C48.1958 75.7475 47.7526 75.5807 47.3849 75.2985C47.0171 75.0163 46.7413 74.6314 46.5922 74.1925C46.4432 73.7535 46.4277 73.2802 46.5477 72.8325C46.6677 72.3847 46.9177 71.9826 47.2662 71.6769C47.6148 71.3713 48.0461 71.1759 48.5057 71.1154C48.9653 71.0548 49.4325 71.132 49.8482 71.337C50.264 71.542 50.6096 71.8657 50.8414 72.2672C51.1521 72.8055 51.2364 73.4452 51.0755 74.0456C50.9146 74.646 50.5218 75.1579 49.9835 75.4688V75.4688ZM50.8414 55.8609C50.6092 56.262 50.2634 56.5852 49.8476 56.7897C49.4319 56.9943 48.9648 57.071 48.5054 57.0102C48.046 56.9494 47.615 56.7538 47.2668 56.4481C46.9185 56.1424 46.6687 55.7404 46.5489 55.2928C46.4291 54.8452 46.4447 54.3721 46.5936 53.9333C46.7426 53.4945 47.0183 53.1097 47.3858 52.8276C47.7534 52.5454 48.1963 52.3786 48.6587 52.3481C49.1211 52.3176 49.5821 52.4248 49.9835 52.6563C50.2503 52.8102 50.4841 53.0151 50.6716 53.2594C50.8591 53.5037 50.9966 53.7826 51.0762 54.0801C51.1559 54.3775 51.1762 54.6878 51.1359 54.9931C51.0956 55.2984 50.9955 55.5928 50.8414 55.8594V55.8609ZM65.0507 42.9703C65.5143 42.9703 65.9674 43.1078 66.3528 43.3653C66.7383 43.6228 67.0387 43.9889 67.2161 44.4172C67.3935 44.8454 67.4399 45.3167 67.3495 45.7713C67.259 46.226 67.0358 46.6436 66.708 46.9714C66.3802 47.2991 65.9626 47.5223 65.508 47.6128C65.0533 47.7032 64.5821 47.6568 64.1538 47.4794C63.7256 47.302 63.3595 47.0016 63.102 46.6162C62.8444 46.2308 62.707 45.7776 62.707 45.3141C62.7068 45.0062 62.7673 44.7012 62.8849 44.4167C63.0026 44.1321 63.1752 43.8736 63.3929 43.6558C63.6106 43.438 63.869 43.2652 64.1535 43.1473C64.4379 43.0294 64.7428 42.9688 65.0507 42.9688V42.9703ZM65.0507 85.1578C64.5872 85.1578 64.134 85.0204 63.7486 84.7628C63.3632 84.5053 63.0628 84.1392 62.8854 83.711C62.708 83.2827 62.6616 82.8115 62.752 82.3568C62.8425 81.9022 63.0657 81.4846 63.3934 81.1568C63.7212 80.829 64.1388 80.6058 64.5935 80.5154C65.0481 80.4249 65.5194 80.4713 65.9476 80.6487C66.3759 80.8261 66.742 81.1265 66.9995 81.512C67.257 81.8974 67.3945 82.3505 67.3945 82.8141C67.3941 83.4354 67.147 84.0311 66.7075 84.4703C66.268 84.9095 65.6721 85.1563 65.0507 85.1563V85.1578ZM65.0507 78.1266C62.2694 78.1266 59.5506 77.3018 57.238 75.7566C54.9255 74.2114 53.123 72.0151 52.0587 69.4456C50.9943 66.876 50.7158 64.0485 51.2584 61.3206C51.801 58.5928 53.1404 56.0871 55.107 54.1204C57.0737 52.1537 59.5794 50.8144 62.3073 50.2718C65.0351 49.7292 67.8626 50.0077 70.4322 51.072C73.0018 52.1364 75.1981 53.9388 76.7433 56.2514C78.2885 58.5639 79.1132 61.2828 79.1132 64.0641C79.1083 67.792 77.625 71.3658 74.9888 74.0017C72.3526 76.6376 68.7787 78.1205 65.0507 78.125V78.1266ZM83.3179 74.6109C83.0861 75.0124 82.7405 75.3361 82.3248 75.5411C81.909 75.7462 81.4418 75.8233 80.9822 75.7628C80.5226 75.7023 80.0913 75.5068 79.7428 75.2012C79.3943 74.8956 79.1442 74.4934 79.0243 74.0457C78.9043 73.5979 78.9198 73.1246 79.0688 72.6857C79.2178 72.2467 79.4936 71.8618 79.8614 71.5796C80.2292 71.2974 80.6724 71.1307 81.1349 71.1003C81.5975 71.07 82.0587 71.1776 82.4601 71.4094C82.998 71.7202 83.3905 72.2318 83.5513 72.8318C83.7122 73.4319 83.6282 74.0712 83.3179 74.6094V74.6109ZM82.4601 56.7188C82.0587 56.9505 81.5975 57.0581 81.1349 57.0278C80.6724 56.9975 80.2292 56.8307 79.8614 56.5485C79.4936 56.2663 79.2178 55.8814 79.0688 55.4425C78.9198 55.0035 78.9043 54.5302 79.0243 54.0825C79.1442 53.6347 79.3943 53.2326 79.7428 52.9269C80.0913 52.6213 80.5226 52.4259 80.9822 52.3654C81.4418 52.3048 81.909 52.382 82.3248 52.587C82.7405 52.792 83.0861 53.1157 83.3179 53.5172C83.6287 54.0555 83.7129 54.6952 83.5521 55.2956C83.3912 55.896 82.9984 56.4079 82.4601 56.7188Z" fill="var(--fill-0, #3996FC)"/>
<g id="Group">
<path id="Vector_2" d="M41.6159 1.56251C33.4849 1.55821 25.5555 4.09275 18.9344 8.81233C12.3134 13.5319 7.33109 20.201 4.68306 27.8887C2.03503 35.5764 1.8534 43.8991 4.16351 51.695C6.47362 59.4909 11.1602 66.3711 17.569 71.375C17.6003 71.3953 17.6237 71.425 17.6565 71.4438C23.0345 75.6392 29.4198 78.349 36.1737 79.3022C42.9277 80.2553 49.8135 79.4183 56.1425 76.875C59.1472 78.9663 62.7915 79.9346 66.4381 79.6108C70.0846 79.2869 73.5012 77.6914 76.0904 75.1034C78.6795 72.5153 80.2765 69.0994 80.6019 65.453C80.9273 61.8066 79.9605 58.1619 77.8706 55.1563C80.2492 49.2293 81.1378 42.8093 80.4585 36.4591C79.7792 30.1089 77.5528 24.0222 73.9744 18.7324C70.396 13.4426 65.5749 9.11119 59.9334 6.11775C54.2919 3.12431 48.0024 1.5602 41.6159 1.56251V1.56251ZM5.67842 40.625C5.67643 35.3947 6.81611 30.2271 9.01789 25.4828C11.2197 20.7386 14.4305 16.5321 18.4261 13.1571C22.4218 9.78208 27.1059 7.31991 32.1516 5.94249C37.1972 4.56507 42.4827 4.30559 47.639 5.18218C52.7953 6.05876 57.6981 8.05029 62.0051 11.0177C66.3121 13.9851 69.9195 17.8569 72.5754 22.3626C75.2313 26.8684 76.8716 31.8996 77.3819 37.1049C77.8923 42.3102 77.2602 47.5642 75.53 52.5C72.7118 49.9245 69.0438 48.477 65.2263 48.4337C61.4087 48.3905 57.7089 49.7546 54.8331 52.2656C54.2503 51.9 53.6644 51.5438 53.0534 51.2281C55.126 49.0012 56.5034 46.2177 57.0167 43.2192C57.5299 40.2207 57.1567 37.1375 55.9427 34.3481C54.7288 31.5586 52.727 29.1842 50.1829 27.5162C47.6388 25.8482 44.6631 24.9591 41.621 24.958C38.5788 24.957 35.6025 25.844 33.0573 27.5103C30.5121 29.1766 28.5086 31.5497 27.2928 34.3383C26.077 37.1269 25.7016 40.2098 26.2128 43.2087C26.724 46.2076 28.0996 48.992 30.1706 51.2203C27.0475 52.8408 24.3004 55.1003 22.1078 57.852C19.9151 60.6038 18.3261 63.7861 17.444 67.1922C13.7374 63.8302 10.7756 59.7295 8.74919 55.1539C6.72283 50.5784 5.6768 45.6292 5.67842 40.625V40.625ZM29.1159 40.625C29.1159 38.1527 29.849 35.736 31.2225 33.6804C32.5961 31.6248 34.5483 30.0226 36.8324 29.0765C39.1164 28.1304 41.6298 27.8829 44.0545 28.3652C46.4793 28.8475 48.7066 30.038 50.4547 31.7862C52.2029 33.5343 53.3934 35.7616 53.8757 38.1864C54.358 40.6111 54.1105 43.1245 53.1644 45.4085C52.2183 47.6926 50.6162 49.6449 48.5605 51.0184C46.5049 52.3919 44.0882 53.125 41.6159 53.125C38.3018 53.1213 35.1246 51.8031 32.7812 49.4597C30.4378 47.1163 29.1196 43.9391 29.1159 40.625V40.625ZM20.1487 69.4297C20.7995 65.9495 22.2838 62.6788 24.4746 59.8975C26.6654 57.1162 29.4974 54.9072 32.7284 53.4594C35.3329 55.2737 38.4302 56.2475 41.6043 56.25C44.7784 56.2525 47.8773 55.2836 50.4847 53.4734C51.2282 53.806 51.9527 54.1795 52.655 54.5922C50.4261 57.4849 49.2885 61.0709 49.4422 64.7195C49.596 68.3681 51.0312 71.8457 53.4956 74.5406C47.9441 76.4875 41.9991 77.0396 36.1841 76.1483C30.369 75.2571 24.8623 72.9498 20.1487 69.4297V69.4297ZM65.0534 76.5625C62.5811 76.5625 60.1644 75.8294 58.1088 74.4559C56.0532 73.0824 54.451 71.1301 53.5049 68.846C52.5588 66.562 52.3113 64.0486 52.7936 61.6239C53.2759 59.1991 54.4664 56.9718 56.2146 55.2237C57.9627 53.4755 60.19 52.285 62.6148 51.8027C65.0395 51.3204 67.5529 51.5679 69.837 52.514C72.121 53.4601 74.0733 55.0623 75.4468 57.1179C76.8203 59.1735 77.5534 61.5902 77.5534 64.0625C77.5497 67.3766 76.2315 70.5538 73.8881 72.8972C71.5447 75.2406 68.3675 76.5588 65.0534 76.5625V76.5625Z" fill="var(--fill-0, #C9D3DE)"/>
<path id="Vector_3" d="M69.7378 59.9416L64.8941 66.3728L61.4722 62.9572C61.1775 62.6726 60.7828 62.5151 60.3731 62.5187C59.9635 62.5222 59.5716 62.6866 59.2819 62.9763C58.9922 63.266 58.8278 63.6579 58.8243 64.0675C58.8207 64.4772 58.9782 64.8719 59.2628 65.1666L62.6785 68.5838C62.9946 68.9001 63.3749 69.145 63.7938 69.3017C64.2126 69.4584 64.6602 69.5235 65.1064 69.4924C65.5525 69.4612 65.9868 69.3347 66.3798 69.1214C66.7729 68.908 67.1155 68.6128 67.3847 68.2557L72.2284 61.8213C72.4771 61.4898 72.5838 61.0731 72.5252 60.6628C72.4666 60.2526 72.2475 59.8824 71.9159 59.6338C71.5844 59.3852 71.1677 59.2784 70.7575 59.337C70.3472 59.3956 69.9771 59.6148 69.7285 59.9463L69.7378 59.9416Z" fill="var(--fill-0, #C9D3DE)"/>
</g>
</g>
</svg>
