<svg preserveAspectRatio="none" width="100%" height="100%" overflow="visible" style="display: block;" viewBox="0 0 100 100" fill="none" xmlns="http://www.w3.org/2000/svg">
<g id="image 3" clip-path="url(#clip0_0_174)">
<g id="Group">
<path id="Vector" d="M25.7812 84.3741C25.2587 84.3776 24.7368 84.4136 24.2188 84.482V93.7491C24.2188 94.9923 24.7126 96.1846 25.5917 97.0637C26.4708 97.9428 27.663 98.4366 28.9062 98.4366H38.1734C38.407 96.6759 38.2605 94.8855 37.7437 93.1861C37.227 91.4867 36.3519 89.9179 35.1776 88.5853C34.0033 87.2527 32.5569 86.1872 30.936 85.4608C29.3152 84.7344 27.5574 84.3639 25.7812 84.3741Z" fill="var(--fill-0, #3996FC)"/>
<path id="Vector_2" d="M82.8125 50C82.813 49.4782 82.8396 48.9567 82.8922 48.4375H41.3297C41.5634 50.7421 41.2814 53.0698 40.5041 55.2519C39.7268 57.4339 38.4736 59.4157 36.8356 61.0535C35.1975 62.6913 33.2155 63.944 31.0333 64.7209C28.851 65.4979 26.5233 65.7795 24.2188 65.5453V81.3266C26.5233 81.0928 28.851 81.3749 31.0331 82.1522C33.2152 82.9295 35.197 84.1826 36.8347 85.8207C38.4725 87.4588 39.7253 89.4408 40.5022 91.623C41.2791 93.8052 41.5607 96.133 41.3266 98.4375H82.8891C82.6553 96.1329 82.9374 93.8052 83.7147 91.6231C84.492 89.4411 85.7451 87.4593 87.3832 85.8215C89.0213 84.1837 91.0033 82.931 93.1855 82.1541C95.3677 81.3771 97.6955 81.0955 100 81.3297V65.5484C97.8267 65.7688 95.6314 65.5307 93.5559 64.8494C91.4805 64.1682 89.5711 63.059 87.9512 61.5935C86.3312 60.1281 85.0369 58.339 84.1517 56.342C83.2666 54.345 82.8103 52.1844 82.8125 50ZM39.2578 75H34.5703C34.1559 75 33.7585 74.8354 33.4655 74.5424C33.1724 74.2493 33.0078 73.8519 33.0078 73.4375C33.0078 73.0231 33.1724 72.6257 33.4655 72.3326C33.7585 72.0396 34.1559 71.875 34.5703 71.875H39.2578C39.6722 71.875 40.0696 72.0396 40.3627 72.3326C40.6557 72.6257 40.8203 73.0231 40.8203 73.4375C40.8203 73.8519 40.6557 74.2493 40.3627 74.5424C40.0696 74.8354 39.6722 75 39.2578 75ZM62.1094 87.1094C59.4053 87.1094 56.762 86.3075 54.5137 84.8053C52.2654 83.303 50.513 81.1677 49.4782 78.6695C48.4434 76.1713 48.1727 73.4223 48.7002 70.7703C49.2277 68.1182 50.5299 65.6821 52.4419 63.77C54.3539 61.858 56.79 60.5559 59.4421 60.0283C62.0942 59.5008 64.8432 59.7715 67.3414 60.8063C69.8396 61.8411 71.9748 63.5935 73.4771 65.8418C74.9794 68.0901 75.7812 70.7335 75.7812 73.4375C75.7771 77.0622 74.3354 80.5373 71.7723 83.1004C69.2092 85.6635 65.7341 87.1052 62.1094 87.1094V87.1094ZM89.6484 75H84.9609C84.5465 75 84.1491 74.8354 83.8561 74.5424C83.5631 74.2493 83.3984 73.8519 83.3984 73.4375C83.3984 73.0231 83.5631 72.6257 83.8561 72.3326C84.1491 72.0396 84.5465 71.875 84.9609 71.875H89.6484C90.0628 71.875 90.4603 72.0396 90.7533 72.3326C91.0463 72.6257 91.2109 73.0231 91.2109 73.4375C91.2109 73.8519 91.0463 74.2493 90.7533 74.5424C90.4603 74.8354 90.0628 75 89.6484 75Z" fill="var(--fill-0, #3996FC)"/>
<path id="Vector_3" d="M38.2813 50C38.2778 49.4774 38.2418 48.9556 38.1734 48.4375H28.9063C27.663 48.4375 26.4708 48.9314 25.5917 49.8104C24.7126 50.6895 24.2188 51.8818 24.2188 53.125V62.3922C25.9795 62.6258 27.7699 62.4793 29.4693 61.9625C31.1687 61.4457 32.7375 60.5707 34.0701 59.3963C35.4027 58.222 36.4682 56.7757 37.1946 55.1548C37.921 53.5339 38.2915 51.7762 38.2813 50V50Z" fill="var(--fill-0, #3996FC)"/>
<path id="Vector_4" d="M85.9382 96.8744C85.9416 97.397 85.9777 97.9188 86.046 98.4369H95.3132C96.5564 98.4369 97.7487 97.943 98.6278 97.064C99.5068 96.1849 100.001 94.9926 100.001 93.7494V84.4822C98.2399 84.2486 96.4495 84.3951 94.7502 84.9119C93.0508 85.4287 91.482 86.3037 90.1493 87.4781C88.8167 88.6524 87.7513 90.0987 87.0249 91.7196C86.2985 93.3405 85.9279 95.0982 85.9382 96.8744V96.8744Z" fill="var(--fill-0, #3996FC)"/>
<path id="Vector_5" d="M95.3123 30.8474H87.3654L91.3279 26.8865C91.6126 26.5918 91.77 26.1971 91.7665 25.7874C91.7629 25.3777 91.5986 24.9858 91.3089 24.6961C91.0192 24.4064 90.6273 24.2421 90.2176 24.2385C89.8079 24.235 89.4132 24.3925 89.1186 24.6771L82.4904 31.3036C82.3449 31.4488 82.2295 31.6212 82.1507 31.811C82.0719 32.0009 82.0314 32.2044 82.0314 32.4099C82.0314 32.6154 82.0719 32.8189 82.1507 33.0088C82.2295 33.1986 82.3449 33.371 82.4904 33.5162L89.1186 40.1443C89.4132 40.4289 89.8079 40.5864 90.2176 40.5828C90.6273 40.5793 91.0192 40.4149 91.3089 40.1252C91.5986 39.8355 91.7629 39.4436 91.7665 39.034C91.77 38.6243 91.6126 38.2296 91.3279 37.9349L87.3654 33.9724H95.3123C95.7267 33.9724 96.1241 34.137 96.4172 34.43C96.7102 34.7231 96.8748 35.1205 96.8748 35.5349V48.7255C96.3744 48.5405 95.8458 48.4432 95.3123 48.438H86.0451C85.7941 50.3299 85.9822 52.2541 86.5947 54.0615C87.2073 55.869 88.2278 57.5111 89.5773 58.8606C90.9267 60.21 92.5688 61.2306 94.3763 61.8431C96.1837 62.4556 98.108 62.6437 99.9998 62.3927V35.5349C99.9998 34.2917 99.5059 33.0994 98.6269 32.2203C97.7478 31.3413 96.5555 30.8474 95.3123 30.8474V30.8474Z" fill="var(--fill-0, #3996FC)"/>
</g>
<path id="Vector_6" d="M71.0938 1.5625H4.6875C3.4443 1.5625 2.25201 2.05636 1.37294 2.93544C0.49386 3.81451 0 5.0068 0 6.25L0 64.4656C0 65.7088 0.49386 66.9011 1.37294 67.7802C2.25201 68.6593 3.4443 69.1531 4.6875 69.1531H12.6344L8.67188 73.1141C8.52264 73.2582 8.40361 73.4306 8.32172 73.6212C8.23983 73.8119 8.19672 74.0169 8.19492 74.2244C8.19312 74.4318 8.23265 74.6376 8.31122 74.8296C8.38978 75.0216 8.5058 75.1961 8.65251 75.3428C8.79921 75.4895 8.97367 75.6055 9.1657 75.6841C9.35772 75.7627 9.56347 75.8022 9.77094 75.8004C9.97841 75.7986 10.1834 75.7555 10.3741 75.6736C10.5647 75.5917 10.7371 75.4727 10.8813 75.3234L17.5094 68.6969C17.6549 68.5517 17.7703 68.3793 17.8491 68.1895C17.9279 67.9996 17.9684 67.7961 17.9684 67.5906C17.9684 67.3851 17.9279 67.1816 17.8491 66.9918C17.7703 66.8019 17.6549 66.6295 17.5094 66.4844L10.8813 59.8562C10.7371 59.707 10.5647 59.588 10.3741 59.5061C10.1834 59.4242 9.97841 59.3811 9.77094 59.3793C9.56347 59.3775 9.35772 59.417 9.1657 59.4956C8.97367 59.5742 8.79921 59.6902 8.65251 59.8369C8.5058 59.9836 8.38978 60.158 8.31122 60.3501C8.23265 60.5421 8.19312 60.7478 8.19492 60.9553C8.19672 61.1628 8.23983 61.3678 8.32172 61.5584C8.40361 61.7491 8.52264 61.9215 8.67188 62.0656L12.6344 66.0281H4.6875C4.2731 66.0281 3.87567 65.8635 3.58265 65.5705C3.28962 65.2774 3.125 64.88 3.125 64.4656V51.275C3.6254 51.4601 4.154 51.5573 4.6875 51.5625H71.0938C72.337 51.5625 73.5292 51.0686 74.4083 50.1896C75.2874 49.3105 75.7812 48.1182 75.7812 46.875V6.25C75.7812 5.0068 75.2874 3.81451 74.4083 2.93544C73.5292 2.05636 72.337 1.5625 71.0938 1.5625V1.5625ZM3.125 6.25C3.125 5.8356 3.28962 5.43817 3.58265 5.14515C3.87567 4.85212 4.2731 4.6875 4.6875 4.6875H13.9547C13.6041 7.43724 12.3504 9.99272 10.3903 11.9528C8.43022 13.9129 5.87474 15.1666 3.125 15.5172V6.25ZM4.6875 48.4375C4.2731 48.4375 3.87567 48.2729 3.58265 47.9799C3.28962 47.6868 3.125 47.2894 3.125 46.875V37.6078C5.87474 37.9584 8.43022 39.2121 10.3903 41.1722C12.3504 43.1323 13.6041 45.6878 13.9547 48.4375H4.6875ZM72.6562 46.875C72.6562 47.2894 72.4916 47.6868 72.1986 47.9799C71.9056 48.2729 71.5082 48.4375 71.0938 48.4375H61.8266C62.1771 45.6878 63.4308 43.1323 65.3909 41.1722C67.351 39.2121 69.9065 37.9584 72.6562 37.6078V46.875ZM72.6562 34.4547C69.0721 34.8196 65.7237 36.4101 63.1763 38.9575C60.6288 41.505 59.0384 44.8534 58.6734 48.4375H17.1109C16.7459 44.8529 15.155 41.5041 12.6069 38.9566C10.0588 36.4091 6.70967 34.8189 3.125 34.4547V18.6734C6.70959 18.3084 10.0584 16.7175 12.6059 14.1694C15.1534 11.6213 16.7436 8.27217 17.1078 4.6875H58.6703C59.0354 8.27209 60.6263 11.6209 63.1743 14.1684C65.7224 16.7159 69.0716 18.3061 72.6562 18.6703V34.4547ZM72.6562 15.5172C69.9065 15.1666 67.351 13.9129 65.3909 11.9528C63.4308 9.99272 62.1771 7.43724 61.8266 4.6875H71.0938C71.5082 4.6875 71.9056 4.85212 72.1986 5.14515C72.4916 5.43817 72.6562 5.8356 72.6562 6.25V15.5172Z" fill="var(--fill-0, #C9D3DE)"/>
<path id="Vector_7" d="M37.8906 12.8906C35.1866 12.8906 32.5432 13.6925 30.2949 15.1948C28.0466 16.697 26.2942 18.8323 25.2594 21.3305C24.2246 23.8287 23.9539 26.5777 24.4814 29.2298C25.009 31.8818 26.3111 34.3179 28.2231 36.23C30.1352 38.142 32.5713 39.4441 35.2234 39.9717C37.8754 40.4992 40.6244 40.2285 43.1226 39.1937C45.6208 38.1589 47.7561 36.4065 49.2583 34.1582C50.7606 31.9099 51.5625 29.2665 51.5625 26.5625C51.5583 22.9378 50.1166 19.4627 47.5535 16.8996C44.9904 14.3365 41.5153 12.8948 37.8906 12.8906V12.8906ZM37.8906 37.1094C35.8046 37.1094 33.7655 36.4908 32.0311 35.3319C30.2966 34.173 28.9448 32.5258 28.1466 30.5986C27.3483 28.6714 27.1394 26.5508 27.5464 24.5049C27.9533 22.459 28.9578 20.5797 30.4328 19.1047C31.9078 17.6297 33.7871 16.6252 35.833 16.2183C37.8789 15.8113 39.9995 16.0202 41.9267 16.8185C43.8539 17.6167 45.5011 18.9685 46.66 20.703C47.8189 22.4374 48.4375 24.4765 48.4375 26.5625C48.4342 29.3587 47.3219 32.0394 45.3447 34.0166C43.3675 35.9938 40.6868 37.1061 37.8906 37.1094V37.1094Z" fill="var(--fill-0, #C9D3DE)"/>
<path id="Vector_8" d="M59.1797 26.5625C59.1797 26.9769 59.3443 27.3743 59.6373 27.6674C59.9304 27.9604 60.3278 28.125 60.7422 28.125H65.4297C65.8441 28.125 66.2415 27.9604 66.5345 27.6674C66.8276 27.3743 66.9922 26.9769 66.9922 26.5625C66.9922 26.1481 66.8276 25.7507 66.5345 25.4576C66.2415 25.1646 65.8441 25 65.4297 25H60.7422C60.3278 25 59.9304 25.1646 59.6373 25.4576C59.3443 25.7507 59.1797 26.1481 59.1797 26.5625Z" fill="var(--fill-0, #C9D3DE)"/>
<path id="Vector_9" d="M15.0391 25H10.3516C9.93716 25 9.53973 25.1646 9.24671 25.4576C8.95368 25.7507 8.78906 26.1481 8.78906 26.5625C8.78906 26.9769 8.95368 27.3743 9.24671 27.6674C9.53973 27.9604 9.93716 28.125 10.3516 28.125H15.0391C15.4535 28.125 15.8509 27.9604 16.1439 27.6674C16.4369 27.3743 16.6016 26.9769 16.6016 26.5625C16.6016 26.1481 16.4369 25.7507 16.1439 25.4576C15.8509 25.1646 15.4535 25 15.0391 25Z" fill="var(--fill-0, #C9D3DE)"/>
</g>
<defs>
<clipPath id="clip0_0_174">
<rect width="100" height="100" fill="white"/>
</clipPath>
</defs>
</svg>
