<svg preserveAspectRatio="none" width="100%" height="100%" overflow="visible" style="display: block;" viewBox="0 0 100 100" fill="none" xmlns="http://www.w3.org/2000/svg">
<g id="image 1">
<path id="Vector" d="M60.1562 21.875C52.5849 21.875 45.1836 24.1202 38.8883 28.3266C32.5929 32.533 27.6863 38.5117 24.7889 45.5067C21.8915 52.5016 21.1334 60.1987 22.6105 67.6246C24.0876 75.0504 27.7335 81.8715 33.0872 87.2252C38.441 92.5789 45.262 96.2248 52.6879 97.7019C60.1137 99.179 67.8108 98.4209 74.8058 95.5235C81.8008 92.6261 87.7795 87.7195 91.9859 81.4242C96.1923 75.1289 98.4374 67.7276 98.4374 60.1562C98.4258 50.007 94.3889 40.2767 87.2123 33.1001C80.0357 25.9235 70.3054 21.8866 60.1562 21.875V21.875ZM77.5562 77.5563C75.8632 77.5601 74.2271 76.9455 72.9555 75.8279C71.6838 74.7103 70.8641 73.1667 70.6505 71.4872C70.4369 69.8078 70.8441 68.1082 71.7955 66.7078C72.7469 65.3075 74.1771 64.3029 75.8171 63.8828V60.1562C75.8167 59.6947 75.6332 59.2522 75.3068 58.9259C74.9805 58.5996 74.538 58.416 74.0765 58.4156H61.889V67.3641C63.5294 67.7877 64.959 68.7951 65.9098 70.1973C66.8606 71.5996 67.2673 73.3005 67.0538 74.9812C66.8403 76.6619 66.0211 78.207 64.7499 79.327C63.4786 80.4469 61.8426 81.0648 60.1484 81.0648C58.4542 81.0648 56.8181 80.4469 55.5469 79.327C54.2756 78.207 53.4565 76.6619 53.2429 74.9812C53.0294 73.3005 53.4362 71.5996 54.387 70.1973C55.3378 68.7951 56.7674 67.7877 58.4077 67.3641V58.4156H46.2202C45.7616 58.4206 45.3233 58.606 45.0004 58.9318C44.6775 59.2576 44.496 59.6976 44.4952 60.1562V63.8828C46.1357 64.3063 47.5655 65.3135 48.5164 66.7158C49.4674 68.118 49.8743 69.8189 49.6609 71.4997C49.4474 73.1805 48.6283 74.7257 47.3571 75.8458C46.0858 76.9658 44.4497 77.5837 42.7554 77.5837C41.0611 77.5837 39.425 76.9658 38.1537 75.8458C36.8825 74.7257 36.0633 73.1805 35.8499 71.4997C35.6365 69.8189 36.0434 68.118 36.9943 66.7158C37.9453 65.3135 39.375 64.3063 41.0156 63.8828V60.1562C41.0172 58.7722 41.5677 57.4454 42.5464 56.4668C43.525 55.4881 44.8519 54.9376 46.2359 54.9359H58.4234V51.2891C56.0763 50.8549 53.9761 49.5594 52.535 47.6567C51.0938 45.7539 50.4157 43.3813 50.6337 41.0044C50.8516 38.6275 51.95 36.4178 53.7131 34.8089C55.4763 33.2 57.7771 32.3081 60.164 32.3081C62.5509 32.3081 64.8517 33.2 66.6148 34.8089C68.378 36.4178 69.4763 38.6275 69.6943 41.0044C69.9123 43.3813 69.2342 45.7539 67.793 47.6567C66.3519 49.5594 64.2517 50.8549 61.9046 51.2891V54.9359H74.0921C75.4734 54.9417 76.7962 55.4941 77.7715 56.4723C78.7468 57.4505 79.2952 58.7749 79.2968 60.1562V63.8828C80.937 64.3029 82.3672 65.3076 83.3186 66.7081C84.2701 68.1086 84.6771 69.8085 84.4633 71.488C84.2495 73.1676 83.4296 74.7112 82.1576 75.8287C80.8856 76.9461 79.2493 77.5605 77.5562 77.5563V77.5563Z" fill="var(--fill-0, #3996FC)"/>
<circle id="Ellipse 27" cx="60.5" cy="55.5" r="30.5" fill="var(--fill-0, #3996FC)"/>
<path id="Vector_2" d="M40.6249 1.5625C32.8991 1.5625 25.3468 3.85348 18.923 8.14572C12.4992 12.438 7.49243 18.5387 4.53588 25.6764C1.57934 32.8142 0.805768 40.6683 2.313 48.2457C3.82024 55.8231 7.54058 62.7834 13.0036 68.2464C18.4666 73.7093 25.4268 77.4297 33.0042 78.9369C40.5816 80.4442 48.4358 79.6706 55.5735 76.714C62.7112 73.7575 68.812 68.7508 73.1042 62.327C77.3965 55.9032 79.6874 48.3508 79.6874 40.625C79.6758 30.2685 75.5566 20.3396 68.2335 13.0164C60.9104 5.6933 50.9814 1.57408 40.6249 1.5625V1.5625ZM40.6249 4.6875C47.5366 4.69484 54.2999 6.69295 60.1058 10.4429C65.9118 14.1928 70.5147 19.5358 73.364 25.8328C70.2631 24.6773 66.8424 24.7223 63.773 25.9591C60.7036 27.1958 58.2072 29.5349 56.7736 32.5175C55.3401 35.5 55.0729 38.9106 56.0245 42.08C56.9761 45.2494 59.0778 47.9488 61.9171 49.6484C58.0533 51.03 54.7049 53.5611 52.3218 56.9016C50.82 55.8314 49.1794 54.9709 47.4452 54.3437C49.9386 52.8515 51.8738 50.5827 52.9542 47.8852C54.0345 45.1877 54.2003 42.2103 53.4263 39.4095C52.6522 36.6087 50.9809 34.139 48.6686 32.3791C46.3564 30.6192 43.5307 29.6662 40.6249 29.6662C37.7191 29.6662 34.8935 30.6192 32.5812 32.3791C30.269 34.139 28.5977 36.6087 27.8236 39.4095C27.0495 42.2103 27.2153 45.1877 28.2957 47.8852C29.376 50.5827 31.3112 52.8515 33.8046 54.3437C32.0707 54.9715 30.4302 55.832 28.9281 56.9016C26.5447 53.5614 23.1964 51.0304 19.3327 49.6484C22.1721 47.9488 24.2738 45.2494 25.2254 42.08C26.177 38.9106 25.9098 35.5 24.4762 32.5175C23.0427 29.5349 20.5463 27.1958 17.4769 25.9591C14.4075 24.7223 10.9867 24.6773 7.88586 25.8328C10.7353 19.5359 15.3383 14.193 21.1442 10.4431C26.9501 6.69322 33.7133 4.69503 40.6249 4.6875V4.6875ZM68.7499 48.4375C67.1228 48.4476 65.517 48.0666 64.0678 47.3265C62.6187 46.5865 61.3685 45.509 60.4227 44.185C59.4768 42.8609 58.863 41.329 58.6328 39.7181C58.4026 38.1073 58.5629 36.4647 59.1 34.9288C59.6372 33.3928 60.5355 32.0084 61.7194 30.892C62.9033 29.7757 64.3381 28.9602 65.903 28.5142C67.4678 28.0682 69.117 28.0047 70.7115 28.329C72.3061 28.6534 73.7993 29.3562 75.0656 30.3781C76.4935 35.1383 76.906 40.1453 76.2765 45.075C75.3283 46.1325 74.1681 46.9784 72.8713 47.5577C71.5745 48.1371 70.1702 48.4368 68.7499 48.4375V48.4375ZM40.6249 53.125C38.6162 53.125 36.6526 52.5293 34.9824 51.4134C33.3122 50.2974 32.0105 48.7112 31.2418 46.8554C30.4731 44.9996 30.2719 42.9575 30.6638 40.9874C31.0557 39.0172 32.023 37.2076 33.4434 35.7872C34.8638 34.3668 36.6734 33.3995 38.6435 33.0076C40.6137 32.6158 42.6557 32.8169 44.5116 33.5856C46.3674 34.3543 47.9536 35.6561 49.0695 37.3262C50.1855 38.9964 50.7812 40.96 50.7812 42.9688C50.7779 45.6613 49.7068 48.2427 47.8028 50.1467C45.8989 52.0506 43.3175 53.1217 40.6249 53.125V53.125ZM4.97337 45.075C4.34383 40.1453 4.75638 35.1383 6.1843 30.3781C7.73125 29.1416 9.60645 28.3852 11.5784 28.2023C13.5503 28.0194 15.5326 28.418 17.2806 29.3489C19.0286 30.2798 20.4657 31.7022 21.4145 33.4405C22.3633 35.1788 22.7823 37.1569 22.6196 39.1306C22.457 41.1043 21.7199 42.9872 20.4994 44.5468C19.2789 46.1064 17.6284 47.2744 15.7516 47.9066C13.8748 48.5388 11.854 48.6076 9.93857 48.1043C8.02317 47.6011 6.29706 46.548 4.97337 45.075V45.075ZM5.8718 49.7766C7.88556 50.9447 10.1719 51.5607 12.4999 51.5625C15.2553 51.5583 17.9705 52.2234 20.4119 53.5007C22.8533 54.7781 24.9479 56.6293 26.5156 58.8953C23.3282 61.9886 21.2426 66.0413 20.5781 70.4328C13.337 65.5547 8.11166 58.2152 5.8718 49.7766V49.7766ZM23.5156 72.2219C23.8144 67.8879 25.7468 63.8289 28.9226 60.8646C32.0983 57.9003 36.2807 56.2516 40.6249 56.2516C44.9692 56.2516 49.1515 57.9003 52.3273 60.8646C55.503 63.8289 57.4355 67.8879 57.7343 72.2219C52.4814 75.0705 46.6005 76.5624 40.6249 76.5624C34.6494 76.5624 28.7684 75.0705 23.5156 72.2219V72.2219ZM60.6781 70.4328C60.0135 66.0413 57.9279 61.9886 54.7406 58.8953C56.3076 56.6302 58.4012 54.7795 60.8414 53.5022C63.2817 52.2249 65.9956 51.5593 68.7499 51.5625C71.0777 51.5607 73.3639 50.9452 75.3781 49.7781C73.1393 58.2152 67.9163 65.5539 60.6781 70.4328V70.4328Z" fill="var(--fill-0, #C9D3DE)"/>
</g>
</svg>
