<svg preserveAspectRatio="none" width="100%" height="100%" overflow="visible" style="display: block;" viewBox="0 0 100 100" fill="none" xmlns="http://www.w3.org/2000/svg">
<g id="eye 1">
<path id="Vector" d="M92.9688 31.25H24.2188C22.9755 31.25 21.7833 31.7439 20.9042 32.6229C20.0251 33.502 19.5312 34.6943 19.5312 35.9375V46.875H97.6562V35.9375C97.6562 34.6943 97.1624 33.502 96.2833 32.6229C95.4042 31.7439 94.212 31.25 92.9688 31.25ZM69.5312 40.625H32.0312C31.6168 40.625 31.2194 40.4604 30.9264 40.1674C30.6334 39.8743 30.4688 39.4769 30.4688 39.0625C30.4688 38.6481 30.6334 38.2507 30.9264 37.9576C31.2194 37.6646 31.6168 37.5 32.0312 37.5H69.5312C69.9457 37.5 70.3431 37.6646 70.6361 37.9576C70.9291 38.2507 71.0938 38.6481 71.0938 39.0625C71.0938 39.4769 70.9291 39.8743 70.6361 40.1674C70.3431 40.4604 69.9457 40.625 69.5312 40.625ZM88.2812 40.625H80.4688C80.0543 40.625 79.6569 40.4604 79.3639 40.1674C79.0709 39.8743 78.9062 39.4769 78.9062 39.0625C78.9062 38.6481 79.0709 38.2507 79.3639 37.9576C79.6569 37.6646 80.0543 37.5 80.4688 37.5H88.2812C88.6957 37.5 89.0931 37.6646 89.3861 37.9576C89.6791 38.2507 89.8438 38.6481 89.8438 39.0625C89.8438 39.4769 89.6791 39.8743 89.3861 40.1674C89.0931 40.4604 88.6957 40.625 88.2812 40.625Z" fill="var(--fill-0, #3996FC)"/>
<path id="Vector_2" d="M19.5313 50V93.75C19.5312 94.9932 20.0251 96.1855 20.9042 97.0646C21.7833 97.9436 22.9755 98.4375 24.2188 98.4375H92.9688C94.212 98.4375 95.4042 97.9436 96.2833 97.0646C97.1624 96.1855 97.6562 94.9932 97.6562 93.75V50H19.5313ZM64.0625 58.5938V89.8438C64.0625 90.2582 63.8979 90.6556 63.6049 90.9486C63.3118 91.2416 62.9144 91.4062 62.5 91.4062H31.25C30.8356 91.4062 30.4382 91.2416 30.1451 90.9486C29.8521 90.6556 29.6875 90.2582 29.6875 89.8438V58.5938C29.6875 58.1793 29.8521 57.7819 30.1451 57.4889C30.4382 57.1959 30.8356 57.0312 31.25 57.0312H62.5C62.9144 57.0312 63.3118 57.1959 63.6049 57.4889C63.8979 57.7819 64.0625 58.1793 64.0625 58.5938ZM80.4688 91.4062C78.6146 91.4062 76.802 90.8564 75.2603 89.8263C73.7186 88.7961 72.517 87.332 71.8074 85.6189C71.0978 83.9058 70.9122 82.0208 71.2739 80.2023C71.6356 78.3837 72.5285 76.7132 73.8396 75.4021C75.1507 74.091 76.8212 73.1981 78.6398 72.8364C80.4583 72.4747 82.3433 72.6603 84.0564 73.3699C85.7695 74.0795 87.2336 75.2811 88.2638 76.8228C89.2939 78.3645 89.8438 80.1771 89.8438 82.0312C89.8413 84.5169 88.8528 86.9 87.0951 88.6576C85.3375 90.4153 82.9544 91.4038 80.4688 91.4062V91.4062ZM88.2812 67.9688H72.6562C72.2418 67.9688 71.8444 67.8041 71.5514 67.5111C71.2584 67.2181 71.0938 66.8207 71.0938 66.4062C71.0938 65.9918 71.2584 65.5944 71.5514 65.3014C71.8444 65.0084 72.2418 64.8438 72.6562 64.8438H88.2812C88.6957 64.8438 89.0931 65.0084 89.3861 65.3014C89.6791 65.5944 89.8438 65.9918 89.8438 66.4062C89.8438 66.8207 89.6791 67.2181 89.3861 67.5111C89.0931 67.8041 88.6957 67.9688 88.2812 67.9688ZM88.2812 60.1562H72.6562C72.2418 60.1562 71.8444 59.9916 71.5514 59.6986C71.2584 59.4056 71.0938 59.0082 71.0938 58.5938C71.0938 58.1793 71.2584 57.7819 71.5514 57.4889C71.8444 57.1959 72.2418 57.0312 72.6562 57.0312H88.2812C88.6957 57.0312 89.0931 57.1959 89.3861 57.4889C89.6791 57.7819 89.8438 58.1793 89.8438 58.5938C89.8438 59.0082 89.6791 59.4056 89.3861 59.6986C89.0931 59.9916 88.6957 60.1562 88.2812 60.1562Z" fill="var(--fill-0, #3996FC)"/>
<g id="Group">
<path id="Vector_3" d="M80.3123 35.2391C76.227 27.6525 70.4121 21.1348 63.3388 16.2141L68.8373 10.7156C68.9865 10.5715 69.1055 10.3991 69.1874 10.2084C69.2693 10.0178 69.3124 9.81278 69.3142 9.60531C69.316 9.39785 69.2765 9.1921 69.1979 9.00007C69.1193 8.80805 69.0033 8.63359 68.8566 8.48688C68.7099 8.34018 68.5355 8.22415 68.3434 8.14559C68.1514 8.06703 67.9457 8.02749 67.7382 8.0293C67.5307 8.0311 67.3257 8.0742 67.1351 8.15609C66.9444 8.23798 66.772 8.35701 66.6279 8.50625L60.6044 14.5313C55.2267 11.4242 49.1743 9.67071 42.9685 9.42188V3.125C42.9685 2.7106 42.8039 2.31317 42.5109 2.02015C42.2178 1.72712 41.8204 1.5625 41.406 1.5625C40.9916 1.5625 40.5942 1.72712 40.3011 2.02015C40.0081 2.31317 39.8435 2.7106 39.8435 3.125V9.42188C33.6377 9.67071 27.5853 11.4242 22.2076 14.5313L16.1841 8.50625C16.04 8.35701 15.8676 8.23798 15.6769 8.15609C15.4863 8.0742 15.2813 8.0311 15.0738 8.0293C14.8663 8.02749 14.6606 8.06703 14.4686 8.14559C14.2765 8.22415 14.1021 8.34018 13.9554 8.48688C13.8087 8.63359 13.6927 8.80805 13.6141 9.00007C13.5355 9.1921 13.496 9.39785 13.4978 9.60531C13.4996 9.81278 13.5427 10.0178 13.6246 10.2084C13.7065 10.3991 13.8255 10.5715 13.9748 10.7156L19.4732 16.2141C12.4027 21.1358 6.59063 27.6533 2.50756 35.2391C2.39919 35.4559 2.34277 35.6951 2.34277 35.9375C2.34277 36.1799 2.39919 36.4191 2.50756 36.6359C6.59147 44.2216 12.404 50.7391 19.4748 55.6609L13.9748 61.1609C13.8255 61.3051 13.7065 61.4775 13.6246 61.6681C13.5427 61.8587 13.4996 62.0638 13.4978 62.2712C13.496 62.4787 13.5355 62.6845 13.6141 62.8765C13.6927 63.0685 13.8087 63.243 13.9554 63.3897C14.1021 63.5364 14.2765 63.6524 14.4686 63.731C14.6606 63.8095 14.8663 63.8491 15.0738 63.8473C15.2813 63.8455 15.4863 63.8024 15.6769 63.7205C15.8676 63.6386 16.04 63.5195 16.1841 63.3703L22.2076 57.3438C27.5856 60.4501 33.6378 62.2035 39.8435 62.4531V68.75C39.8435 69.1644 40.0081 69.5618 40.3011 69.8549C40.5942 70.1479 40.9916 70.3125 41.406 70.3125C41.8204 70.3125 42.2178 70.1479 42.5109 69.8549C42.8039 69.5618 42.9685 69.1644 42.9685 68.75V62.4531C49.1742 62.2035 55.2264 60.4501 60.6044 57.3438L66.6279 63.3672C66.772 63.5164 66.9444 63.6355 67.1351 63.7173C67.3257 63.7992 67.5307 63.8423 67.7382 63.8441C67.9457 63.8459 68.1514 63.8064 68.3434 63.7278C68.5355 63.6493 68.7099 63.5333 68.8566 63.3866C69.0033 63.2398 69.1193 63.0654 69.1979 62.8734C69.2765 62.6813 69.316 62.4756 69.3142 62.2681C69.3124 62.0607 69.2693 61.8556 69.1874 61.665C69.1055 61.4744 68.9865 61.3019 68.8373 61.1578L63.3372 55.6578C70.4105 50.7378 76.2257 44.2213 80.3123 36.6359C80.4206 36.4191 80.477 36.1799 80.477 35.9375C80.477 35.6951 80.4206 35.4559 80.3123 35.2391V35.2391ZM41.406 59.375C19.9998 59.375 7.92319 39.9078 5.68413 35.9375C7.92319 31.9672 19.9998 12.5 41.406 12.5C62.8123 12.5 74.8888 31.9672 77.1279 35.9375C74.8888 39.9078 62.8123 59.375 41.406 59.375V59.375Z" fill="var(--fill-0, #C9D3DE)"/>
<path id="Vector_4" d="M41.4063 18.75C38.0069 18.75 34.6839 19.758 31.8574 21.6466C29.0309 23.5352 26.828 26.2195 25.5271 29.3601C24.2262 32.5007 23.8858 35.9566 24.549 39.2906C25.2122 42.6247 26.8491 45.6872 29.2529 48.0909C31.6566 50.4946 34.7191 52.1316 38.0531 52.7947C41.3872 53.4579 44.843 53.1175 47.9836 51.8167C51.1242 50.5158 53.8086 48.3128 55.6971 45.4864C57.5857 42.6599 58.5938 39.3369 58.5938 35.9375C58.5884 31.3807 56.7758 27.0122 53.5537 23.79C50.3316 20.5679 45.963 18.7554 41.4063 18.75ZM41.4063 50C38.625 50 35.9061 49.1752 33.5936 47.63C31.281 46.0848 29.4786 43.8886 28.4142 41.319C27.3498 38.7494 27.0714 35.9219 27.614 33.194C28.1566 30.4662 29.4959 27.9605 31.4626 25.9938C33.4292 24.0271 35.9349 22.6878 38.6628 22.1452C41.3907 21.6026 44.2182 21.8811 46.7877 22.9454C49.3573 24.0098 51.5536 25.8122 53.0988 28.1248C54.644 30.4374 55.4688 33.1562 55.4688 35.9375C55.4642 39.6657 53.9812 43.2399 51.3449 45.8762C48.7087 48.5124 45.1345 49.9954 41.4063 50V50Z" fill="var(--fill-0, #C9D3DE)"/>
<path id="Vector_5" d="M41.4063 28.125C39.8611 28.125 38.3506 28.5832 37.0659 29.4416C35.7811 30.3001 34.7798 31.5202 34.1884 32.9478C33.5971 34.3753 33.4424 35.9462 33.7439 37.4616C34.0453 38.9771 34.7894 40.3692 35.882 41.4618C36.9746 42.5544 38.3666 43.2984 39.8821 43.5999C41.3976 43.9013 42.9684 43.7466 44.396 43.1553C45.8235 42.564 47.0437 41.5626 47.9021 40.2779C48.7606 38.9931 49.2187 37.4827 49.2187 35.9375C49.2163 33.8663 48.3924 31.8806 46.9278 30.416C45.4632 28.9514 43.4775 28.1275 41.4063 28.125V28.125ZM41.4063 40.625C40.4792 40.625 39.5729 40.3501 38.802 39.835C38.0312 39.3199 37.4304 38.5879 37.0756 37.7313C36.7208 36.8748 36.628 35.9323 36.8088 35.023C36.9897 34.1137 37.4361 33.2785 38.0917 32.6229C38.7472 31.9674 39.5825 31.5209 40.4918 31.3401C41.4011 31.1592 42.3436 31.252 43.2001 31.6068C44.0566 31.9616 44.7887 32.5624 45.3038 33.3333C45.8188 34.1041 46.0938 35.0104 46.0938 35.9375C46.0938 37.1807 45.5999 38.373 44.7208 39.2521C43.8417 40.1311 42.6495 40.625 41.4063 40.625V40.625Z" fill="var(--fill-0, #C9D3DE)"/>
</g>
</g>
</svg>
