<svg preserveAspectRatio="none" width="100%" height="100%" overflow="visible" style="display: block;" viewBox="0 0 100 100" fill="none" xmlns="http://www.w3.org/2000/svg">
<g id="certificate-4 1">
<g id="Group">
<path id="Vector" d="M67.9629 62.1094C74.6507 62.1094 80.0723 56.6878 80.0723 50C80.0723 43.3122 74.6507 37.8906 67.9629 37.8906C61.2751 37.8906 55.8535 43.3122 55.8535 50C55.8535 56.6878 61.2751 62.1094 67.9629 62.1094Z" fill="var(--fill-0, #3996FC)"/>
<path id="Vector_2" d="M96.6564 38.1118C95.8725 36.1854 94.6276 34.4809 93.0312 33.1479C91.4348 31.8149 89.5355 30.8942 87.5002 30.4665C87.0574 28.4373 86.1304 26.5454 84.7981 24.9521C83.4659 23.3588 81.7679 22.1114 79.8492 21.3165C77.9305 20.5215 75.8479 20.2025 73.7792 20.3867C71.7105 20.5709 69.717 21.2528 67.9689 22.3743C66.2204 21.2498 64.2255 20.5655 62.1549 20.3797C60.0844 20.1939 57.9996 20.5122 56.0787 21.3074C54.1579 22.1026 52.4582 23.351 51.1248 24.946C49.7915 26.541 48.8641 28.4351 48.422 30.4665C46.3929 30.9092 44.5009 31.8363 42.9076 33.1685C41.3143 34.5008 40.067 36.1987 39.272 38.1175C38.477 40.0362 38.158 42.1188 38.3423 44.1875C38.5265 46.2562 39.2084 48.2497 40.3299 49.9977C39.2067 51.746 38.5234 53.7402 38.3383 55.8099C38.1532 57.8796 38.4718 59.9634 39.2669 61.8832C40.062 63.803 41.31 65.5019 42.9043 66.8347C44.4985 68.1675 46.3917 69.0946 48.422 69.5368C48.8642 71.5681 49.7916 73.4622 51.125 75.0571C52.4583 76.6521 54.1579 77.9006 56.0787 78.6959C57.9994 79.4912 60.0841 79.8097 62.1547 79.6242C64.2253 79.4387 66.2202 78.7547 67.9689 77.6306C69.7172 78.7517 71.7107 79.4332 73.7794 79.6172C75.8481 79.8011 77.9306 79.4819 79.8493 78.6868C81.7679 77.8917 83.4658 76.6443 84.798 75.0511C86.1302 73.4578 87.0573 71.5659 87.5002 69.5368C89.5307 69.0948 91.424 68.1678 93.0184 66.8351C94.6129 65.5024 95.8611 63.8036 96.6563 61.8837C97.4516 59.9639 97.7704 57.88 97.5853 55.8102C97.4003 53.7404 96.7171 51.7461 95.5939 49.9977C96.7309 48.2551 97.4225 46.2598 97.6077 44.1873C97.793 42.1148 97.4663 40.0285 96.6564 38.1118V38.1118ZM67.9689 65.2321C64.9556 65.2334 62.0096 64.3409 59.5034 62.6677C56.9973 60.9945 55.0437 58.6156 53.8897 55.832C52.7357 53.0484 52.4331 49.9851 53.0203 47.0295C53.6074 44.0739 55.0578 41.3588 57.1881 39.2276C59.3184 37.0964 62.0329 35.6449 64.9883 35.0566C67.9436 34.4682 71.0071 34.7696 73.7912 35.9224C76.5752 37.0753 78.9549 39.0279 80.6292 41.5333C82.3034 44.0387 83.197 46.9844 83.197 49.9977C83.1925 54.0357 81.5869 57.907 78.7322 60.7628C75.8775 63.6187 72.0068 65.2259 67.9689 65.2321V65.2321Z" fill="var(--fill-0, #3996FC)"/>
<path id="Vector_3" d="M54.8813 81.5766C51.8855 80.3526 49.3367 78.2401 47.5781 75.5234L41.2063 89.7688C41.0869 90.0359 41.0449 90.3311 41.0851 90.6209C41.1253 90.9107 41.2461 91.1834 41.4337 91.408C41.6213 91.6325 41.8681 91.7999 42.1461 91.891C42.4241 91.9821 42.7222 91.9934 43.0063 91.9234L51.5625 89.8172L55.6969 97.6031C55.8335 97.8633 56.0408 98.0796 56.2948 98.2273C56.5489 98.375 56.8394 98.448 57.1331 98.4381C57.4267 98.4281 57.7116 98.3356 57.9551 98.171C58.1985 98.0065 58.3907 97.7766 58.5094 97.5078L65.3656 82.1828C61.9053 83.1938 58.202 82.9797 54.8813 81.5766V81.5766Z" fill="var(--fill-0, #3996FC)"/>
<path id="Vector_4" d="M88.3451 75.5234C86.5868 78.2397 84.0387 80.3522 81.0436 81.5766C77.7222 82.9794 74.0185 83.1936 70.5576 82.1828L77.4123 97.5078C77.531 97.7766 77.7232 98.0065 77.9666 98.171C78.2101 98.3356 78.495 98.4281 78.7886 98.4381C79.0823 98.448 79.3728 98.375 79.6269 98.2273C79.8809 98.0796 80.0881 97.8633 80.2248 97.6031L84.3592 89.8172L92.9217 91.9234C93.2058 91.9934 93.5038 91.9821 93.7818 91.891C94.0598 91.7999 94.3067 91.6325 94.4943 91.408C94.6818 91.1834 94.8026 90.9107 94.8428 90.6209C94.883 90.3311 94.841 90.0359 94.7217 89.7688L88.3451 75.5234Z" fill="var(--fill-0, #3996FC)"/>
</g>
<path id="Vector_5" d="M72.6562 1.5625H22.6562C20.585 1.56498 18.5993 2.38888 17.1347 3.85347C15.6701 5.31806 14.8462 7.30376 14.8438 9.375V62.5H7.03125C5.78805 62.5 4.59576 62.9939 3.71669 63.8729C2.83761 64.752 2.34375 65.9443 2.34375 67.1875V70.3125C2.34623 72.3837 3.17013 74.3694 4.63472 75.834C6.09931 77.2986 8.08501 78.1225 10.1562 78.125H60.1562C62.2275 78.1225 64.2132 77.2986 65.6778 75.834C67.1424 74.3694 67.9663 72.3837 67.9688 70.3125V17.1875H75.7812C77.0245 17.1875 78.2167 16.6936 79.0958 15.8146C79.9749 14.9355 80.4688 13.7432 80.4688 12.5V9.375C80.4663 7.30376 79.6424 5.31806 78.1778 3.85347C76.7132 2.38888 74.7275 1.56498 72.6562 1.5625V1.5625ZM10.1562 75C8.91305 75 7.72076 74.5061 6.84169 73.6271C5.96261 72.748 5.46875 71.5557 5.46875 70.3125V67.1875C5.46875 66.7731 5.63337 66.3757 5.9264 66.0826C6.21942 65.7896 6.61685 65.625 7.03125 65.625H50.7812C51.1957 65.625 51.5931 65.7896 51.8861 66.0826C52.1791 66.3757 52.3438 66.7731 52.3438 67.1875V70.3125C52.3415 72.0033 52.89 73.6488 53.9062 75H10.1562ZM64.8438 9.375V70.3125C64.8438 71.5557 64.3499 72.748 63.4708 73.6271C62.5917 74.5061 61.3995 75 60.1562 75C58.913 75 57.7208 74.5061 56.8417 73.6271C55.9626 72.748 55.4688 71.5557 55.4688 70.3125V67.1875C55.4688 65.9443 54.9749 64.752 54.0958 63.8729C53.2167 62.9939 52.0245 62.5 50.7812 62.5H17.9688V9.375C17.9688 8.1318 18.4626 6.93951 19.3417 6.06044C20.2208 5.18136 21.413 4.6875 22.6562 4.6875H66.4469C65.4128 6.03186 64.8495 7.67895 64.8438 9.375V9.375ZM77.3438 12.5C77.3438 12.9144 77.1791 13.3118 76.8861 13.6049C76.5931 13.8979 76.1957 14.0625 75.7812 14.0625H67.9688V9.375C67.9688 8.1318 68.4626 6.93951 69.3417 6.06044C70.2208 5.18136 71.413 4.6875 72.6562 4.6875C73.8995 4.6875 75.0917 5.18136 75.9708 6.06044C76.8499 6.93951 77.3438 8.1318 77.3438 9.375V12.5Z" fill="var(--fill-0, #C9D3DE)"/>
<path id="Vector_6" d="M24.9998 46.0902H30.192L32.9233 52.9199C33.0399 53.2128 33.2424 53.4635 33.5042 53.6391C33.7659 53.8148 34.0747 53.9072 34.3899 53.9041C34.7052 53.9011 35.0121 53.8028 35.2704 53.6221C35.5287 53.4414 35.7264 53.1868 35.8373 52.8918L40.1733 41.3793H41.0764L45.4123 52.8918C45.5233 53.1868 45.7209 53.4414 45.9793 53.6221C46.2376 53.8028 46.5445 53.9011 46.8597 53.9041C47.175 53.9072 47.4837 53.8148 47.7455 53.6391C48.0072 53.4635 48.2098 53.2128 48.3264 52.9199L51.0576 46.0902H56.2498C56.5031 46.0902 56.7526 46.0286 56.9768 45.9107C57.201 45.7928 57.3932 45.6222 57.5368 45.4136C57.6804 45.2049 57.7711 44.9645 57.8011 44.713C57.8312 44.4615 57.7996 44.2065 57.7092 43.9699L53.4998 32.9761C54.4401 30.8357 54.8319 28.4947 54.6398 26.1647C54.4477 23.8348 53.6777 21.5895 52.3996 19.632C51.1214 17.6745 49.3754 16.0666 47.3195 14.9536C45.2636 13.8407 42.9627 13.2578 40.6248 13.2578C38.287 13.2578 35.9861 13.8407 33.9302 14.9536C31.8742 16.0666 30.1282 17.6745 28.8501 19.632C27.572 21.5895 26.802 23.8348 26.6099 26.1647C26.4178 28.4947 26.8096 30.8357 27.7498 32.9761L23.5405 43.9699C23.45 44.2065 23.4185 44.4615 23.4485 44.713C23.4786 44.9645 23.5693 45.2049 23.7129 45.4136C23.8565 45.6222 24.0487 45.7928 24.2729 45.9107C24.4971 46.0286 24.7466 46.0902 24.9998 46.0902V46.0902ZM53.978 42.9652H49.9998C49.6874 42.9651 49.382 43.0587 49.1232 43.2339C48.8645 43.4091 48.6642 43.6578 48.5483 43.948L46.9186 48.023L44.2389 40.9152C47.0549 40.1655 49.569 38.5604 51.4342 36.3214L53.978 42.9652ZM40.6248 16.4027C42.7881 16.4027 44.9027 17.0442 46.7014 18.246C48.5001 19.4478 49.9019 21.156 50.7298 23.1546C51.5576 25.1532 51.7742 27.3523 51.3522 29.474C50.9302 31.5957 49.8885 33.5445 48.3588 35.0742C46.8292 36.6038 44.8803 37.6455 42.7586 38.0675C40.637 38.4896 38.4378 38.273 36.4392 37.4451C34.4407 36.6173 32.7325 35.2154 31.5306 33.4168C30.3288 31.6181 29.6873 29.5034 29.6873 27.3402C29.6906 24.4404 30.844 21.6603 32.8945 19.6099C34.945 17.5594 37.725 16.406 40.6248 16.4027V16.4027ZM29.8155 36.3214C31.6807 38.5604 34.1947 40.1655 37.0108 40.9152L34.3311 48.023L32.7014 43.948C32.5855 43.6578 32.3852 43.4091 32.1264 43.2339C31.8677 43.0587 31.5623 42.9651 31.2498 42.9652H27.2717L29.8155 36.3214Z" fill="var(--fill-0, #C9D3DE)"/>
</g>
</svg>
