<svg preserveAspectRatio="none" width="100%" height="100%" overflow="visible" style="display: block;" viewBox="0 0 100 100" fill="none" xmlns="http://www.w3.org/2000/svg">
<g id="document-11 1">
<path id="Vector" d="M91.0109 49.375L88.8015 51.5844L91.0109 53.7938C91.3038 54.0868 91.4684 54.4841 91.4684 54.8984C91.4684 55.3128 91.3038 55.7101 91.0109 56.0031L75.5421 71.4719C75.2575 71.7666 75.1 72.1613 75.1036 72.5709C75.1071 72.9806 75.2715 73.3725 75.5612 73.6622C75.8509 73.9519 76.2428 74.1163 76.6524 74.1198C77.0621 74.1234 77.4568 73.9659 77.7515 73.6813L93.2203 58.2125C94.099 57.3335 94.5927 56.1414 94.5927 54.8984C94.5927 53.6555 94.099 52.4634 93.2203 51.5844L91.0109 49.375Z" fill="var(--fill-0, #3996FC)"/>
<path id="Vector_2" d="M94.3256 46.0548C95.6572 44.7549 96.7176 43.2035 97.4453 41.4907C98.1729 39.7779 98.5534 37.9377 98.5646 36.0768C98.5758 34.2159 98.2175 32.3713 97.5105 30.6498C96.8035 28.9284 95.7619 27.3644 94.446 26.0485C93.1301 24.7326 91.5661 23.691 89.8447 22.984C88.1232 22.277 86.2786 21.9187 84.4177 21.9299C82.5568 21.9411 80.7166 22.3216 79.0038 23.0492C77.291 23.7769 75.7396 24.8373 74.4396 26.1689L71.124 29.483L91.0115 49.3783L94.3256 46.0548Z" fill="var(--fill-0, #3996FC)"/>
<path id="Vector_3" d="M68.9139 31.6875L29.2592 71.3422C28.9663 71.6352 28.8018 72.0326 28.8018 72.4469C28.8018 72.8612 28.9663 73.2586 29.2592 73.5516L46.9374 91.2297C47.2304 91.5226 47.6277 91.6872 48.042 91.6872C48.4564 91.6872 48.8537 91.5226 49.1467 91.2297L88.8014 51.575L68.9139 31.6875Z" fill="var(--fill-0, #3996FC)"/>
<path id="Vector_4" d="M28.906 77.6211C28.6929 77.4082 28.4228 77.2615 28.1283 77.1986C27.8338 77.1356 27.5274 77.1591 27.2459 77.2663C26.9644 77.3734 26.7199 77.5596 26.5418 77.8025C26.3637 78.0453 26.2595 78.3345 26.2419 78.6352L25.406 92.8758L22.5091 95.7711C22.2161 96.0643 22.0516 96.4619 22.0518 96.8763C22.0519 97.2908 22.2167 97.6883 22.5099 97.9813C22.8031 98.2742 23.2006 98.4387 23.6151 98.4386C24.0296 98.4385 24.4271 98.2737 24.72 97.9805L27.6154 95.0867L41.8575 94.2477C42.1565 94.2285 42.4436 94.1237 42.6847 93.9459C42.9258 93.7681 43.1107 93.5248 43.2174 93.2449C43.3241 92.965 43.3481 92.6603 43.2865 92.3672C43.2249 92.074 43.0803 91.8047 42.87 91.5914L28.906 77.6211Z" fill="var(--fill-0, #3996FC)"/>
<g id="Group">
<path id="Vector_5" d="M56.2499 1.56237H24.464C23.4375 1.55944 22.4207 1.7601 21.4724 2.15275C20.524 2.5454 19.6629 3.12223 18.939 3.84987L3.85147 18.9405C3.12373 19.6641 2.54672 20.5249 2.15381 21.473C1.76089 22.4211 1.55988 23.4377 1.5624 24.4639V74.9999C1.5624 76.2431 2.05626 77.4354 2.93534 78.3144C3.81442 79.1935 5.0067 79.6874 6.2499 79.6874H56.2499C57.4931 79.6874 58.6854 79.1935 59.5645 78.3144C60.4435 77.4354 60.9374 76.2431 60.9374 74.9999V6.24987C60.9374 5.00667 60.4435 3.81438 59.5645 2.93531C58.6854 2.05623 57.4931 1.56237 56.2499 1.56237V1.56237ZM20.3124 6.89674V20.3124H6.89678L20.3124 6.89674ZM57.8124 74.9999C57.8124 75.4143 57.6478 75.8117 57.3548 76.1047C57.0617 76.3977 56.6643 76.5624 56.2499 76.5624H6.2499C5.8355 76.5624 5.43807 76.3977 5.14505 76.1047C4.85202 75.8117 4.6874 75.4143 4.6874 74.9999V24.4639C4.69047 24.1181 4.7324 23.7738 4.8124 23.4374H21.8749C22.2893 23.4374 22.6867 23.2727 22.9798 22.9797C23.2728 22.6867 23.4374 22.2893 23.4374 21.8749V4.80924C23.7741 4.7309 24.1183 4.69002 24.464 4.68737H56.2499C56.6643 4.68737 57.0617 4.85199 57.3548 5.14502C57.6478 5.43804 57.8124 5.83547 57.8124 6.24987V74.9999Z" fill="var(--fill-0, #C9D3DE)"/>
<path id="Vector_6" d="M50 14.0625H31.25C30.8356 14.0625 30.4382 14.2271 30.1451 14.5201C29.8521 14.8132 29.6875 15.2106 29.6875 15.625C29.6875 16.0394 29.8521 16.4368 30.1451 16.7299C30.4382 17.0229 30.8356 17.1875 31.25 17.1875H50C50.4144 17.1875 50.8118 17.0229 51.1049 16.7299C51.3979 16.4368 51.5625 16.0394 51.5625 15.625C51.5625 15.2106 51.3979 14.8132 51.1049 14.5201C50.8118 14.2271 50.4144 14.0625 50 14.0625Z" fill="var(--fill-0, #C9D3DE)"/>
<path id="Vector_7" d="M50 26.5625H31.25C30.8356 26.5625 30.4382 26.7271 30.1451 27.0202C29.8521 27.3132 29.6875 27.7106 29.6875 28.125C29.6875 28.5394 29.8521 28.9368 30.1451 29.2299C30.4382 29.5229 30.8356 29.6875 31.25 29.6875H50C50.4144 29.6875 50.8118 29.5229 51.1049 29.2299C51.3979 28.9368 51.5625 28.5394 51.5625 28.125C51.5625 27.7106 51.3979 27.3132 51.1049 27.0202C50.8118 26.7271 50.4144 26.5625 50 26.5625Z" fill="var(--fill-0, #C9D3DE)"/>
<path id="Vector_8" d="M50 39.0625H12.5C12.0856 39.0625 11.6882 39.2271 11.3951 39.5202C11.1021 39.8132 10.9375 40.2106 10.9375 40.625C10.9375 41.0394 11.1021 41.4368 11.3951 41.7299C11.6882 42.0229 12.0856 42.1875 12.5 42.1875H50C50.4144 42.1875 50.8118 42.0229 51.1049 41.7299C51.3979 41.4368 51.5625 41.0394 51.5625 40.625C51.5625 40.2106 51.3979 39.8132 51.1049 39.5202C50.8118 39.2271 50.4144 39.0625 50 39.0625Z" fill="var(--fill-0, #C9D3DE)"/>
<path id="Vector_9" d="M50 51.5625H12.5C12.0856 51.5625 11.6882 51.7271 11.3951 52.0201C11.1021 52.3132 10.9375 52.7106 10.9375 53.125C10.9375 53.5394 11.1021 53.9368 11.3951 54.2298C11.6882 54.5229 12.0856 54.6875 12.5 54.6875H50C50.4144 54.6875 50.8118 54.5229 51.1049 54.2298C51.3979 53.9368 51.5625 53.5394 51.5625 53.125C51.5625 52.7106 51.3979 52.3132 51.1049 52.0201C50.8118 51.7271 50.4144 51.5625 50 51.5625Z" fill="var(--fill-0, #C9D3DE)"/>
<path id="Vector_10" d="M32.8125 62.5024H30.2375C29.3116 62.4986 28.4031 62.7546 27.6154 63.2413C26.8276 63.7279 26.1922 64.4258 25.7812 65.2556C25.7284 65.3608 25.6489 65.4504 25.5507 65.5154C25.4525 65.5805 25.339 65.6187 25.2215 65.6262C25.104 65.6338 24.9865 65.6105 24.8808 65.5586C24.775 65.5068 24.6847 65.4281 24.6187 65.3306C24.5563 65.2403 24.5174 65.1358 24.5057 65.0266C24.4939 64.9174 24.5097 64.8071 24.5516 64.7056C24.8407 63.9816 24.9293 63.1931 24.8078 62.4231C24.6863 61.6531 24.3593 60.9301 23.8613 60.3303C23.3633 59.7306 22.7128 59.2763 21.9782 59.0154C21.2436 58.7545 20.4522 58.6965 19.6875 58.8477C18.5906 59.0672 17.5516 59.513 16.6368 60.1569C15.7221 60.8007 14.9517 61.6283 14.375 62.5868L11.1609 67.9477C10.9564 68.3025 10.8993 68.7234 11.0019 69.1198C11.1045 69.5163 11.3587 69.8566 11.7097 70.0675C12.0607 70.2785 12.4805 70.3432 12.8788 70.2477C13.277 70.1523 13.6218 69.9043 13.8391 69.5571L17.0562 64.1946C17.4074 63.6096 17.877 63.1043 18.4347 62.7112C18.9925 62.3181 19.6262 62.0458 20.2953 61.9118C20.5082 61.8692 20.7287 61.8849 20.9334 61.9572C21.1381 62.0296 21.3195 62.156 21.4583 62.323C21.5971 62.4899 21.6882 62.6913 21.7219 62.9058C21.7557 63.1203 21.7308 63.34 21.65 63.5415C21.2844 64.4523 21.2853 65.4692 21.6526 66.3793C22.0199 67.2895 22.7251 68.0222 23.6205 68.424C24.5159 68.8259 25.5321 68.8657 26.4562 68.5352C27.3803 68.2047 28.1407 67.5294 28.5781 66.6509C28.7313 66.3421 28.968 66.0826 29.2613 65.9016C29.5547 65.7207 29.8929 65.6257 30.2375 65.6274H32.8125C33.2269 65.6274 33.6243 65.4628 33.9174 65.1698C34.2104 64.8768 34.375 64.4793 34.375 64.0649C34.375 63.6505 34.2104 63.2531 33.9174 62.9601C33.6243 62.6671 33.2269 62.5024 32.8125 62.5024V62.5024Z" fill="var(--fill-0, #C9D3DE)"/>
</g>
</g>
</svg>
